<?xml version="1.0" encoding="UTF-8" standalone="no"?>
<svg
   xmlns:dc="http://purl.org/dc/elements/1.1/"
   xmlns:cc="http://creativecommons.org/ns#"
   xmlns:rdf="http://www.w3.org/1999/02/22-rdf-syntax-ns#"
   xmlns:svg="http://www.w3.org/2000/svg"
   xmlns="http://www.w3.org/2000/svg"
   xmlns:sodipodi="http://sodipodi.sourceforge.net/DTD/sodipodi-0.dtd"
   xmlns:inkscape="http://www.inkscape.org/namespaces/inkscape"
   width="2500"
   height="2500"
   viewBox="0 0 192.756 192.756"
   id="svg2"
   version="1.1"
   inkscape:version="0.91 r13725"
   sodipodi:docname="polish-radio-downloader.svg"
   inkscape:export-filename="/home/bohdan/Skrypty/cordova/prdl/res/svg-full/polish-radio-downloader.png"
   inkscape:export-xdpi="100.0125"
   inkscape:export-ydpi="100.0125">
  <metadata
     id="metadata16">
    <rdf:RDF>
      <cc:Work
         rdf:about="">
        <dc:format>image/svg+xml</dc:format>
        <dc:type
           rdf:resource="http://purl.org/dc/dcmitype/StillImage" />
        <dc:title></dc:title>
      </cc:Work>
    </rdf:RDF>
  </metadata>
  <defs
     id="defs14" />
  <sodipodi:namedview
     pagecolor="#ffffff"
     bordercolor="#666666"
     borderopacity="1"
     objecttolerance="10"
     gridtolerance="10"
     guidetolerance="10"
     inkscape:pageopacity="0"
     inkscape:pageshadow="2"
     inkscape:window-width="1920"
     inkscape:window-height="1027"
     id="namedview12"
     showgrid="false"
     inkscape:zoom="0.26700352"
     inkscape:cx="336.97801"
     inkscape:cy="1491.6244"
     inkscape:window-x="0"
     inkscape:window-y="0"
     inkscape:window-maximized="1"
     inkscape:current-layer="svg2"
     fit-margin-top="50"
     fit-margin-left="50"
     fit-margin-right="50"
     fit-margin-bottom="50" />
  <path
     style="clip-rule:evenodd;fill:#b4282e;fill-rule:evenodd"
     inkscape:connector-curvature="0"
     id="path8"
     d="m 96.378508,188.90088 c -46.617296,0 -85.434649,-34.20451 -92.2387037,-78.59954 l 9.0602527,0 c 6.718953,39.48819 41.498045,69.7324 83.178451,69.7324 41.681422,0 76.459502,-30.24421 83.179462,-69.7324 l 9.06025,0 c -6.80506,44.39503 -45.6214,78.59954 -92.239712,78.59954 z M 3.8551201,84.458549 C 9.7838461,39.094208 49.063178,3.8551201 96.378508,3.8551201 c 47.314312,0 86.594662,35.2380989 92.522372,80.6034289 l -9.02884,0 C 174.00714,43.99512 138.75999,12.723248 96.378508,12.723248 c -42.382492,0 -77.629641,31.271872 -83.494542,71.735301 l -9.0288459,0 z M 96.378508,169.95794 c -36.068783,0 -66.260508,-25.74882 -72.854848,-59.65562 l 9.942672,0 c 6.437309,28.55189 32.227066,50.00117 62.911163,50.00117 30.685105,0 56.473855,-21.44928 62.911165,-50.00117 l 9.94267,0 c -6.59231,33.90581 -36.78505,59.65562 -72.852822,59.65562 z M 23.164005,84.458549 C 28.936712,49.56663 59.603587,22.799048 96.378508,22.799048 c 36.773912,0 67.441792,26.767582 73.214502,61.659501 l -9.88594,0 C 154.04783,54.91263 127.77584,32.453498 96.378508,32.453498 c -31.397327,0 -57.669326,22.460121 -63.328564,52.005051 l -9.885939,0 z m 73.214503,65.521871 c -24.918482,0 -45.987141,-16.86883 -52.194473,-39.67908 l 11.033793,0 c 5.861862,16.95883 22.11419,29.20864 41.16068,29.20864 19.046492,0 35.299832,-12.24981 41.160682,-29.20864 l 11.03379,0 c -6.20733,22.81124 -27.27498,39.67908 -52.194472,39.67908 z M 43.679506,84.458549 C 49.169555,60.638438 70.736665,42.77459 96.379521,42.77459 c 25.641839,0 47.209969,17.864837 52.698999,41.683959 l -10.90107,0 C 132.93966,66.469088 116.16761,53.247012 96.379521,53.247012 c -19.788087,0 -36.560142,13.222076 -41.797926,31.211537 l -10.902089,0 z m 52.699002,44.911341 c -13.312281,0 -24.838446,-7.82366 -30.149175,-19.06855 l 10.034866,0 c 4.445532,6.29156 11.808824,10.41802 20.114309,10.41802 8.305482,0 15.668772,-4.12646 20.114312,-10.41802 l 10.03385,0 c -5.30972,11.24489 -16.83588,19.06855 -30.148162,19.06855 z M 65.364137,84.458549 c 4.836592,-12.309151 16.926047,-21.072436 31.014371,-21.072436 14.089332,0 26.177782,8.762296 31.013362,21.072436 l -9.62659,0 c -4.21859,-7.404283 -12.23027,-12.422896 -21.386772,-12.422896 -9.157512,0 -17.169195,5.018613 -21.387789,12.422896 l -9.626582,0 z" />
  <g
     transform="scale(0.82404381,1.2135277)"
     style="font-style:normal;font-variant:normal;font-weight:normal;font-stretch:condensed;font-size:9.17240238px;line-height:125%;font-family:Impact;-inkscape-font-specification:'Impact Condensed';letter-spacing:0px;word-spacing:0px;fill:#000000;fill-opacity:1;stroke:none;stroke-width:1px;stroke-linecap:butt;stroke-linejoin:miter;stroke-opacity:1"
     id="text3347">
    <path
       d="m 4.6782905,71.770581 4.2726917,0 q 1.7332618,0 2.6603548,0.272082 0.937171,0.272082 1.400718,0.786014 0.473624,0.513932 0.634857,1.249561 0.171311,0.725551 0.171311,2.257271 l 0,1.420871 q 0,1.561951 -0.322467,2.277426 -0.322468,0.715474 -1.189099,1.098404 -0.856553,0.38293 -2.247194,0.38293 l -1.1387122,0 0,6.570271 -4.2424603,0 0,-16.31483 z m 4.2424603,2.791358 0,4.151766 q 0.1813879,0.01008 0.3123902,0.01008 0.584472,0 0.806168,-0.282159 0.231774,-0.292236 0.231774,-1.199175 l 0,-1.340255 q 0,-0.836399 -0.262005,-1.088327 -0.2620047,-0.251927 -1.0883272,-0.251927 z"
       style="font-style:normal;font-variant:normal;font-weight:normal;font-stretch:condensed;font-size:20.63790703px;font-family:Impact;-inkscape-font-specification:'Impact Condensed'"
       id="path4136" />
    <path
       d="m 24.731725,81.323675 q 0,2.458813 -0.120925,3.486678 -0.110848,1.017787 -0.725552,1.864264 -0.604626,0.846476 -1.642567,1.299946 -1.037942,0.45347 -2.418505,0.45347 -1.310023,0 -2.358042,-0.423239 -1.037942,-0.433315 -1.672799,-1.289869 -0.634858,-0.856554 -0.755783,-1.864264 -0.120925,-1.00771 -0.120925,-3.526986 l 0,-2.791358 q 0,-2.458813 0.110848,-3.4766 0.120925,-1.027865 0.725551,-1.874341 0.614704,-0.846477 1.652645,-1.299947 1.037942,-0.453469 2.418505,-0.453469 1.310023,0 2.347965,0.433315 1.048019,0.423239 1.682876,1.279792 0.634858,0.856554 0.755783,1.864264 0.120925,1.007711 0.120925,3.526986 l 0,2.791358 z m -4.24246,-5.361019 q 0,-1.138713 -0.131003,-1.451103 -0.120925,-0.322467 -0.513932,-0.322467 -0.332544,0 -0.513932,0.262005 -0.171311,0.251927 -0.171311,1.511565 l 0,7.61829 q 0,1.420872 0.110848,1.753416 0.120925,0.332544 0.544164,0.332544 0.433315,0 0.55424,-0.38293 0.120926,-0.382929 0.120926,-1.823955 l 0,-7.497365 z"
       style="font-style:normal;font-variant:normal;font-weight:normal;font-stretch:condensed;font-size:20.63790703px;font-family:Impact;-inkscape-font-specification:'Impact Condensed'"
       id="path4138" />
    <path
       d="m 30.566367,71.770581 0,13.049849 2.579739,0 0,3.264981 -6.822199,0 0,-16.31483 4.24246,0 z"
       style="font-style:normal;font-variant:normal;font-weight:normal;font-stretch:condensed;font-size:20.63790703px;font-family:Impact;-inkscape-font-specification:'Impact Condensed'"
       id="path4140" />
    <path
       d="m 38.426507,71.770581 0,16.31483 -4.24246,0 0,-16.31483 4.24246,0 z"
       style="font-style:normal;font-variant:normal;font-weight:normal;font-stretch:condensed;font-size:20.63790703px;font-family:Impact;-inkscape-font-specification:'Impact Condensed'"
       id="path4142" />
    <path
       d="m 49.138468,76.708362 -3.940148,0 0,-1.209253 q 0,-0.846476 -0.151156,-1.07825 -0.151157,-0.231773 -0.503855,-0.231773 -0.38293,0 -0.584472,0.31239 -0.191465,0.31239 -0.191465,0.947248 0,0.816245 0.221696,1.229406 0.211619,0.413162 1.199175,0.997634 2.831666,1.682876 3.567295,2.761126 0.735628,1.07825 0.735628,3.4766 0,1.743339 -0.413161,2.569662 -0.403084,0.826322 -1.572028,1.39064 -1.168944,0.554241 -2.720818,0.554241 -1.70303,0 -2.912283,-0.644935 -1.199175,-0.644935 -1.572028,-1.642568 -0.372853,-0.997633 -0.372853,-2.831666 l 0,-1.068173 3.940148,0 0,1.98519 q 0,0.917016 0.161233,1.179021 0.171311,0.262004 0.594549,0.262004 0.423239,0 0.624781,-0.332544 0.211619,-0.332544 0.211619,-0.987556 0,-1.441026 -0.393007,-1.884418 -0.403084,-0.443393 -1.985189,-1.481335 -1.582106,-1.048018 -2.096038,-1.521642 -0.513932,-0.473624 -0.856554,-1.310024 -0.332544,-0.836399 -0.332544,-2.136345 0,-1.874342 0.473624,-2.740972 0.483701,-0.866631 1.551874,-1.350332 1.068173,-0.493778 2.579738,-0.493778 1.652645,0 2.811512,0.534086 1.168944,0.534087 1.541797,1.350332 0.38293,0.806168 0.38293,2.751049 l 0,0.644935 z"
       style="font-style:normal;font-variant:normal;font-weight:normal;font-stretch:condensed;font-size:20.63790703px;font-family:Impact;-inkscape-font-specification:'Impact Condensed'"
       id="path4144" />
    <path
       d="m 60.586056,71.770581 0,16.31483 -4.242461,0 0,-6.85243 -1.269715,0 0,6.85243 -4.24246,0 0,-16.31483 4.24246,0 0,5.834643 1.269715,0 0,-5.834643 4.242461,0 z"
       style="font-style:normal;font-variant:normal;font-weight:normal;font-stretch:condensed;font-size:20.63790703px;font-family:Impact;-inkscape-font-specification:'Impact Condensed'"
       id="path4146" />
    <path
       d="m 65.906768,71.770581 3.002977,0 q 3.002976,0 4.061072,0.231774 1.068173,0.231773 1.733262,1.189098 0.675166,0.947247 0.675166,3.033208 0,1.904572 -0.473624,2.559584 -0.473624,0.655012 -1.864264,0.786014 1.259638,0.31239 1.692953,0.8364 0.433316,0.524009 0.534087,0.967401 0.110848,0.433316 0.110848,2.408428 l 0,4.302923 -3.940147,0 0,-5.421481 q 0,-1.310024 -0.21162,-1.622414 -0.201542,-0.31239 -1.07825,-0.31239 l 0,7.356285 -4.24246,0 0,-16.31483 z m 4.24246,2.791358 0,3.627757 q 0.715475,0 0.997634,-0.191465 0.292236,-0.201542 0.292236,-1.279792 l 0,-0.896862 q 0,-0.775937 -0.282159,-1.017788 -0.272082,-0.24185 -1.007711,-0.24185 z"
       style="font-style:normal;font-variant:normal;font-weight:normal;font-stretch:condensed;font-size:20.63790703px;font-family:Impact;-inkscape-font-specification:'Impact Condensed'"
       id="path4148" />
    <path
       d="m 84.357944,71.770581 2.428582,16.31483 -4.343232,0 -0.211619,-2.932437 -1.521642,0 -0.251928,2.932437 -4.393617,0 2.1565,-16.31483 6.136956,0 z M 82.11075,82.260846 q -0.322467,-2.771204 -0.644935,-6.842353 -0.644934,4.675775 -0.806168,6.842353 l 1.451103,0 z"
       style="font-style:normal;font-variant:normal;font-weight:normal;font-stretch:condensed;font-size:20.63790703px;font-family:Impact;-inkscape-font-specification:'Impact Condensed'"
       id="path4150" />
    <path
       d="m 87.512076,71.770581 3.174288,0 q 3.073516,0 4.151766,0.282159 1.088328,0.282159 1.652645,0.927094 0.564318,0.644934 0.705398,1.441025 0.141079,0.786014 0.141079,3.103748 l 0,5.713718 q 0,2.196808 -0.211619,2.942514 -0.201542,0.735628 -0.715475,1.158866 -0.513932,0.413162 -1.269715,0.584472 -0.755782,0.161234 -2.277425,0.161234 l -5.350942,0 0,-16.31483 z m 4.242461,2.791358 0,10.732115 q 0.917016,0 1.128635,-0.362776 0.21162,-0.372853 0.21162,-2.005344 l 0,-6.338497 q 0,-1.108482 -0.07054,-1.420872 -0.07054,-0.31239 -0.322467,-0.45347 -0.251928,-0.151156 -0.947248,-0.151156 z"
       style="font-style:normal;font-variant:normal;font-weight:normal;font-stretch:condensed;font-size:20.63790703px;font-family:Impact;-inkscape-font-specification:'Impact Condensed'"
       id="path4152" />
    <path
       d="m 103.16182,71.770581 0,16.31483 -4.242464,0 0,-16.31483 4.242464,0 z"
       style="font-style:normal;font-variant:normal;font-weight:normal;font-stretch:condensed;font-size:20.63790703px;font-family:Impact;-inkscape-font-specification:'Impact Condensed'"
       id="path4154" />
    <path
       d="m 114.57917,81.323675 q 0,2.458813 -0.12092,3.486678 -0.11085,1.017787 -0.72555,1.864264 -0.60463,0.846476 -1.64257,1.299946 -1.03794,0.45347 -2.4185,0.45347 -1.31003,0 -2.35805,-0.423239 -1.03794,-0.433315 -1.6728,-1.289869 -0.63485,-0.856554 -0.75578,-1.864264 -0.12092,-1.00771 -0.12092,-3.526986 l 0,-2.791358 q 0,-2.458813 0.11084,-3.4766 0.12093,-1.027865 0.72556,-1.874341 0.6147,-0.846477 1.65264,-1.299947 1.03794,-0.453469 2.41851,-0.453469 1.31002,0 2.34796,0.433315 1.04802,0.423239 1.68288,1.279792 0.63485,0.856554 0.75578,1.864264 0.12092,1.007711 0.12092,3.526986 l 0,2.791358 z m -4.24246,-5.361019 q 0,-1.138713 -0.131,-1.451103 -0.12092,-0.322467 -0.51393,-0.322467 -0.33254,0 -0.51393,0.262005 -0.17131,0.251927 -0.17131,1.511565 l 0,7.61829 q 0,1.420872 0.11084,1.753416 0.12093,0.332544 0.54417,0.332544 0.43331,0 0.55424,-0.38293 0.12092,-0.382929 0.12092,-1.823955 l 0,-7.497365 z"
       style="font-style:normal;font-variant:normal;font-weight:normal;font-stretch:condensed;font-size:20.63790703px;font-family:Impact;-inkscape-font-specification:'Impact Condensed'"
       id="path4156" />
    <path
       d="m 119.79912,71.770581 3.17428,0 q 3.07352,0 4.15177,0.282159 1.08833,0.282159 1.65265,0.927094 0.56431,0.644934 0.70539,1.441025 0.14108,0.786014 0.14108,3.103748 l 0,5.713718 q 0,2.196808 -0.21162,2.942514 -0.20154,0.735628 -0.71547,1.158866 -0.51393,0.413162 -1.26972,0.584472 -0.75578,0.161234 -2.27742,0.161234 l -5.35094,0 0,-16.31483 z m 4.24246,2.791358 0,10.732115 q 0.91701,0 1.12863,-0.362776 0.21162,-0.372853 0.21162,-2.005344 l 0,-6.338497 q 0,-1.108482 -0.0705,-1.420872 -0.0705,-0.31239 -0.32246,-0.45347 -0.25193,-0.151156 -0.94725,-0.151156 z"
       style="font-style:normal;font-variant:normal;font-weight:normal;font-stretch:condensed;font-size:20.63790703px;font-family:Impact;-inkscape-font-specification:'Impact Condensed'"
       id="path4158" />
    <path
       d="m 140.90057,81.323675 q 0,2.458813 -0.12092,3.486678 -0.11085,1.017787 -0.72556,1.864264 -0.60462,0.846476 -1.64256,1.299946 -1.03795,0.45347 -2.41851,0.45347 -1.31002,0 -2.35804,-0.423239 -1.03794,-0.433315 -1.6728,-1.289869 -0.63486,-0.856554 -0.75578,-1.864264 -0.12093,-1.00771 -0.12093,-3.526986 l 0,-2.791358 q 0,-2.458813 0.11085,-3.4766 0.12093,-1.027865 0.72555,-1.874341 0.6147,-0.846477 1.65265,-1.299947 1.03794,-0.453469 2.4185,-0.453469 1.31002,0 2.34797,0.433315 1.04801,0.423239 1.68287,1.279792 0.63486,0.856554 0.75579,1.864264 0.12092,1.007711 0.12092,3.526986 l 0,2.791358 z m -4.24246,-5.361019 q 0,-1.138713 -0.131,-1.451103 -0.12093,-0.322467 -0.51393,-0.322467 -0.33255,0 -0.51394,0.262005 -0.17131,0.251927 -0.17131,1.511565 l 0,7.61829 q 0,1.420872 0.11085,1.753416 0.12093,0.332544 0.54416,0.332544 0.43332,0 0.55424,-0.38293 0.12093,-0.382929 0.12093,-1.823955 l 0,-7.497365 z"
       style="font-style:normal;font-variant:normal;font-weight:normal;font-stretch:condensed;font-size:20.63790703px;font-family:Impact;-inkscape-font-specification:'Impact Condensed'"
       id="path4160" />
    <path
       d="m 158.45487,71.770581 -1.88441,16.31483 -5.30056,0 q -0.72555,-3.758759 -1.27979,-8.545383 -0.25193,2.045652 -1.17902,8.545383 l -5.27033,0 -1.89449,-16.31483 4.12153,0 0.43332,5.693563 0.44339,5.492022 q 0.23177,-4.262615 1.16894,-11.185585 l 4.41378,0 q 0.0907,0.715475 0.46354,5.381173 l 0.46355,6.197419 q 0.3527,-5.91526 1.17902,-11.578592 l 4.12153,0 z"
       style="font-style:normal;font-variant:normal;font-weight:normal;font-stretch:condensed;font-size:20.63790703px;font-family:Impact;-inkscape-font-specification:'Impact Condensed'"
       id="path4162" />
    <path
       d="m 168.77383,71.770581 0,16.31483 -3.71845,0 -2.20689,-7.416748 0,7.416748 -3.54714,0 0,-16.31483 3.54714,0 2.3782,7.346208 0,-7.346208 3.54714,0 z"
       style="font-style:normal;font-variant:normal;font-weight:normal;font-stretch:condensed;font-size:20.63790703px;font-family:Impact;-inkscape-font-specification:'Impact Condensed'"
       id="path4164" />
    <path
       d="m 174.70925,71.770581 0,13.049849 2.57974,0 0,3.264981 -6.8222,0 0,-16.31483 4.24246,0 z"
       style="font-style:normal;font-variant:normal;font-weight:normal;font-stretch:condensed;font-size:20.63790703px;font-family:Impact;-inkscape-font-specification:'Impact Condensed'"
       id="path4166" />
    <path
       d="m 187.69864,81.323675 q 0,2.458813 -0.12093,3.486678 -0.11085,1.017787 -0.72555,1.864264 -0.60463,0.846476 -1.64257,1.299946 -1.03794,0.45347 -2.4185,0.45347 -1.31003,0 -2.35805,-0.423239 -1.03794,-0.433315 -1.67279,-1.289869 -0.63486,-0.856554 -0.75579,-1.864264 -0.12092,-1.00771 -0.12092,-3.526986 l 0,-2.791358 q 0,-2.458813 0.11085,-3.4766 0.12092,-1.027865 0.72555,-1.874341 0.6147,-0.846477 1.65264,-1.299947 1.03794,-0.453469 2.41851,-0.453469 1.31002,0 2.34796,0.433315 1.04802,0.423239 1.68288,1.279792 0.63485,0.856554 0.75578,1.864264 0.12093,1.007711 0.12093,3.526986 l 0,2.791358 z m -4.24246,-5.361019 q 0,-1.138713 -0.13101,-1.451103 -0.12092,-0.322467 -0.51393,-0.322467 -0.33254,0 -0.51393,0.262005 -0.17131,0.251927 -0.17131,1.511565 l 0,7.61829 q 0,1.420872 0.11085,1.753416 0.12092,0.332544 0.54416,0.332544 0.43331,0 0.55424,-0.38293 0.12093,-0.382929 0.12093,-1.823955 l 0,-7.497365 z"
       style="font-style:normal;font-variant:normal;font-weight:normal;font-stretch:condensed;font-size:20.63790703px;font-family:Impact;-inkscape-font-specification:'Impact Condensed'"
       id="path4168" />
    <path
       d="m 196.61688,71.770581 2.42858,16.31483 -4.34323,0 -0.21162,-2.932437 -1.52164,0 -0.25193,2.932437 -4.39362,0 2.1565,-16.31483 6.13696,0 z m -2.2472,10.490265 q -0.32246,-2.771204 -0.64493,-6.842353 -0.64494,4.675775 -0.80617,6.842353 l 1.4511,0 z"
       style="font-style:normal;font-variant:normal;font-weight:normal;font-stretch:condensed;font-size:20.63790703px;font-family:Impact;-inkscape-font-specification:'Impact Condensed'"
       id="path4170" />
    <path
       d="m 199.771,71.770581 3.17429,0 q 3.07352,0 4.15177,0.282159 1.08832,0.282159 1.65264,0.927094 0.56432,0.644934 0.7054,1.441025 0.14108,0.786014 0.14108,3.103748 l 0,5.713718 q 0,2.196808 -0.21162,2.942514 -0.20154,0.735628 -0.71548,1.158866 -0.51393,0.413162 -1.26971,0.584472 -0.75578,0.161234 -2.27743,0.161234 l -5.35094,0 0,-16.31483 z m 4.24246,2.791358 0,10.732115 q 0.91702,0 1.12864,-0.362776 0.21162,-0.372853 0.21162,-2.005344 l 0,-6.338497 q 0,-1.108482 -0.0705,-1.420872 -0.0705,-0.31239 -0.32247,-0.45347 -0.25193,-0.151156 -0.94725,-0.151156 z"
       style="font-style:normal;font-variant:normal;font-weight:normal;font-stretch:condensed;font-size:20.63790703px;font-family:Impact;-inkscape-font-specification:'Impact Condensed'"
       id="path4172" />
    <path
       d="m 211.17829,71.770581 7.07413,0 0,3.264982 -2.83167,0 0,3.09367 2.65028,0 0,3.103748 -2.65028,0 0,3.587449 3.11383,0 0,3.264981 -7.35629,0 0,-16.31483 z"
       style="font-style:normal;font-variant:normal;font-weight:normal;font-stretch:condensed;font-size:20.63790703px;font-family:Impact;-inkscape-font-specification:'Impact Condensed'"
       id="path4174" />
    <path
       d="m 219.76398,71.770581 3.00298,0 q 3.00298,0 4.06107,0.231774 1.06818,0.231773 1.73326,1.189098 0.67517,0.947247 0.67517,3.033208 0,1.904572 -0.47362,2.559584 -0.47363,0.655012 -1.86427,0.786014 1.25964,0.31239 1.69296,0.8364 0.43331,0.524009 0.53408,0.967401 0.11085,0.433316 0.11085,2.408428 l 0,4.302923 -3.94015,0 0,-5.421481 q 0,-1.310024 -0.21162,-1.622414 -0.20154,-0.31239 -1.07825,-0.31239 l 0,7.356285 -4.24246,0 0,-16.31483 z m 4.24246,2.791358 0,3.627757 q 0.71548,0 0.99764,-0.191465 0.29223,-0.201542 0.29223,-1.279792 l 0,-0.896862 q 0,-0.775937 -0.28216,-1.017788 -0.27208,-0.24185 -1.00771,-0.24185 z"
       style="font-style:normal;font-variant:normal;font-weight:normal;font-stretch:condensed;font-size:20.63790703px;font-family:Impact;-inkscape-font-specification:'Impact Condensed'"
       id="path4176" />
  </g>
</svg>
