<?xml version="1.0" encoding="UTF-8" standalone="no"?>
<svg
   xmlns:dc="http://purl.org/dc/elements/1.1/"
   xmlns:cc="http://creativecommons.org/ns#"
   xmlns:rdf="http://www.w3.org/1999/02/22-rdf-syntax-ns#"
   xmlns:svg="http://www.w3.org/2000/svg"
   xmlns="http://www.w3.org/2000/svg"
   xmlns:sodipodi="http://sodipodi.sourceforge.net/DTD/sodipodi-0.dtd"
   xmlns:inkscape="http://www.inkscape.org/namespaces/inkscape"
   width="2500"
   height="2500"
   viewBox="0 0 192.756 192.756"
   id="svg2"
   version="1.1"
   inkscape:version="0.91 r13725"
   sodipodi:docname="polskie-radio-downloader-white.svg"
   inkscape:export-filename="/Volumes/DANE/bohdan/Skrypty/phonegap/prdl/www/img/polskie-radio-downloader.png"
   inkscape:export-xdpi="7.5999999"
   inkscape:export-ydpi="7.5999999">
  <metadata
     id="metadata16">
    <rdf:RDF>
      <cc:Work
         rdf:about="">
        <dc:format>image/svg+xml</dc:format>
        <dc:type
           rdf:resource="http://purl.org/dc/dcmitype/StillImage" />
        <dc:title />
      </cc:Work>
    </rdf:RDF>
  </metadata>
  <defs
     id="defs14" />
  <sodipodi:namedview
     pagecolor="#ffffff"
     bordercolor="#666666"
     borderopacity="1"
     objecttolerance="10"
     gridtolerance="10"
     guidetolerance="10"
     inkscape:pageopacity="0"
     inkscape:pageshadow="2"
     inkscape:window-width="1280"
     inkscape:window-height="751"
     id="namedview12"
     showgrid="false"
     inkscape:zoom="0.26700352"
     inkscape:cx="1006.4394"
     inkscape:cy="1544.9675"
     inkscape:window-x="0"
     inkscape:window-y="1"
     inkscape:window-maximized="1"
     inkscape:current-layer="svg2" />
  <path
     style="clip-rule:evenodd;fill:#ffffff;fill-rule:evenodd"
     inkscape:connector-curvature="0"
     id="path8"
     d="m 95.911,189.922 c -46.014,0 -84.329,-34.582 -91.045,-79.467 l 8.943,0 c 6.632,39.924 40.961,70.502 82.102,70.502 41.142,0 75.47,-30.578 82.103,-70.502 l 8.943,0 c -6.717,44.885 -45.031,79.467 -91.046,79.467 z M 4.585,84.327 C 10.437,38.462 49.208,2.834 95.911,2.834 c 46.702,0 85.474,35.627 91.325,81.493 l -8.912,0 C 172.535,43.417 137.744,11.8 95.911,11.8 54.077,11.8 19.286,43.417 13.497,84.327 l -8.912,0 z m 91.326,86.443 c -35.602,0 -65.403,-26.033 -71.912,-60.314 l 9.814,0 c 6.354,28.867 31.81,50.553 62.097,50.553 30.288,0 55.743,-21.686 62.097,-50.553 l 9.814,0 c -6.507,34.28 -36.309,60.314 -71.91,60.314 z M 23.644,84.327 c 5.698,-35.277 35.968,-62.34 72.267,-62.34 36.298,0 66.569,27.063 72.267,62.34 l -9.758,0 C 152.834,54.455 126.902,31.748 95.911,31.748 64.92,31.748 38.988,54.456 33.402,84.327 l -9.758,0 z m 72.267,66.245 c -24.596,0 -45.392,-17.055 -51.519,-40.117 l 10.891,0 c 5.786,17.146 21.828,29.531 40.628,29.531 18.8,0 34.843,-12.385 40.628,-29.531 l 10.891,0 c -6.127,23.063 -26.922,40.117 -51.519,40.117 z M 43.894,84.327 c 5.419,-24.083 26.707,-42.144 52.018,-42.144 25.31,0 46.599,18.062 52.017,42.144 l -10.76,0 C 131.999,66.139 115.444,52.771 95.912,52.771 76.38,52.771 59.825,66.139 54.655,84.327 l -10.761,0 z m 52.017,45.407 c -13.14,0 -24.517,-7.91 -29.759,-19.279 l 9.905,0 c 4.388,6.361 11.656,10.533 19.854,10.533 8.198,0 15.466,-4.172 19.854,-10.533 l 9.904,0 c -5.241,11.369 -16.618,19.279 -29.758,19.279 z M 65.298,84.327 c 4.774,-12.445 16.707,-21.305 30.613,-21.305 13.907,0 25.839,8.859 30.612,21.305 l -9.502,0 c -4.164,-7.486 -12.072,-12.56 -21.11,-12.56 -9.039,0 -16.947,5.074 -21.111,12.56 l -9.502,0 z" />
  <g
     transform="scale(0.80389534,1.243943)"
     style="font-style:normal;font-variant:normal;font-weight:normal;font-stretch:condensed;font-size:8.94813061px;line-height:125%;font-family:Impact;-inkscape-font-specification:'Impact Condensed';letter-spacing:0px;word-spacing:0px;fill:#ffffff;fill-opacity:1;stroke:none;stroke-width:1px;stroke-linecap:butt;stroke-linejoin:miter;stroke-opacity:1"
     id="text3347">
    <path
       d="m 5.7316588,70.200076 4.1682216,0 q 1.6908826,0 2.5953076,0.265429 0.914256,0.265429 1.366469,0.766795 0.462044,0.501367 0.619335,1.219008 0.167122,0.707812 0.167122,2.20208 l 0,1.38613 q 0,1.52376 -0.314583,2.221741 -0.314583,0.69798 -1.160024,1.071547 -0.83561,0.373567 -2.192248,0.373567 l -1.1108707,0 0,6.409624 -4.1387295,0 0,-15.915921 z m 4.1387295,2.723107 0,4.050253 q 0.1769527,0.0098 0.3047517,0.0098 0.570182,0 0.786457,-0.27526 0.226107,-0.28509 0.226107,-1.169854 l 0,-1.307485 q 0,-0.815949 -0.255599,-1.061717 -0.255598,-0.245767 -1.0617167,-0.245767 z"
       style="font-style:normal;font-variant:normal;font-weight:normal;font-stretch:condensed;font-size:20.13329697px;font-family:Impact;-inkscape-font-specification:'Impact Condensed';fill:#ffffff"
       id="path3392" />
    <path
       d="m 25.294774,79.51959 q 0,2.398694 -0.117968,3.401426 -0.108138,0.992902 -0.707811,1.818682 -0.589843,0.825779 -1.602406,1.268161 -1.012564,0.442383 -2.359371,0.442383 -1.277992,0 -2.300386,-0.41289 Q 17.194268,85.614631 16.574933,84.779021 15.955599,83.94341 15.83763,82.960339 15.719662,81.977268 15.719662,79.51959 l 0,-2.723107 q 0,-2.398694 0.108137,-3.391596 0.117969,-1.002732 0.707812,-1.828512 0.599673,-0.82578 1.612236,-1.268162 1.012564,-0.442382 2.359371,-0.442382 1.277993,0 2.290556,0.422721 1.022394,0.41289 1.641729,1.2485 0.619334,0.835611 0.737303,1.818682 0.117968,0.983071 0.117968,3.440749 l 0,2.723107 z m -4.138729,-5.229939 q 0,-1.11087 -0.127799,-1.415622 -0.117969,-0.314583 -0.501367,-0.314583 -0.324413,0 -0.501366,0.255599 -0.167122,0.245768 -0.167122,1.474606 l 0,7.432018 q 0,1.386131 0.108138,1.710544 0.117968,0.324414 0.530858,0.324414 0.422721,0 0.540689,-0.373567 0.117969,-0.373567 0.117969,-1.779359 l 0,-7.31405 z"
       style="font-style:normal;font-variant:normal;font-weight:normal;font-stretch:condensed;font-size:20.13329697px;font-family:Impact;-inkscape-font-specification:'Impact Condensed';fill:#ffffff"
       id="path3394" />
    <path
       d="m 30.947434,70.200076 0,12.730771 2.516662,0 0,3.18515 -6.655392,0 0,-15.915921 4.13873,0 z"
       style="font-style:normal;font-variant:normal;font-weight:normal;font-stretch:condensed;font-size:20.13329697px;font-family:Impact;-inkscape-font-specification:'Impact Condensed';fill:#ffffff"
       id="path3396" />
    <path
       d="m 43.245654,75.017124 -3.843808,0 0,-1.179685 q 0,-0.82578 -0.147461,-1.051886 -0.14746,-0.226107 -0.491535,-0.226107 -0.373567,0 -0.570181,0.304752 -0.186784,0.304752 -0.186784,0.924087 0,0.796288 0.216276,1.199347 0.206445,0.403059 1.169854,0.97324 2.76243,1.641729 3.480072,2.693615 0.717642,1.051886 0.717642,3.391596 0,1.700713 -0.403059,2.506831 -0.393229,0.806119 -1.533591,1.356638 -1.140363,0.54069 -2.654292,0.54069 -1.66139,0 -2.841076,-0.629166 Q 34.987857,85.19191 34.62412,84.21867 34.260384,83.24543 34.260384,81.45624 l 0,-1.042055 3.843808,0 0,1.93665 q 0,0.894595 0.157292,1.150193 0.167122,0.255599 0.580011,0.255599 0.41289,0 0.609505,-0.324414 0.206445,-0.324413 0.206445,-0.96341 0,-1.405791 -0.383398,-1.838343 -0.393229,-0.432551 -1.93665,-1.445114 -1.543422,-1.022394 -2.044788,-1.484438 -0.501367,-0.462043 -0.835611,-1.277992 -0.324413,-0.815949 -0.324413,-2.084111 0,-1.828512 0.462043,-2.673953 0.471874,-0.845442 1.51393,-1.317316 1.042055,-0.481705 2.516662,-0.481705 1.612237,0 2.742768,0.521028 1.140363,0.521028 1.504099,1.317315 0.373567,0.786457 0.373567,2.683785 l 0,0.629165 z"
       style="font-style:normal;font-variant:normal;font-weight:normal;font-stretch:condensed;font-size:20.13329697px;font-family:Impact;-inkscape-font-specification:'Impact Condensed';fill:#ffffff"
       id="path3398" />
    <path
       d="m 54.757416,70.200076 -2.369201,7.18625 2.595308,8.729671 -4.27636,0 -1.671221,-6.822513 0,6.822513 -4.138729,0 0,-15.915921 4.138729,0 0,6.183517 1.838343,-6.183517 3.883131,0 z"
       style="font-style:normal;font-variant:normal;font-weight:normal;font-stretch:condensed;font-size:20.13329697px;font-family:Impact;-inkscape-font-specification:'Impact Condensed';fill:#ffffff"
       id="path3400" />
    <path
       d="m 59.849724,70.200076 0,15.915921 -4.138729,0 0,-15.915921 4.138729,0 z"
       style="font-style:normal;font-variant:normal;font-weight:normal;font-stretch:condensed;font-size:20.13329697px;font-family:Impact;-inkscape-font-specification:'Impact Condensed';fill:#ffffff"
       id="path3402" />
    <path
       d="m 61.491455,70.200076 6.901159,0 0,3.18515 -2.76243,0 0,3.018028 2.585478,0 0,3.02786 -2.585478,0 0,3.499733 3.03769,0 0,3.18515 -7.176419,0 0,-15.915921 z"
       style="font-style:normal;font-variant:normal;font-weight:normal;font-stretch:condensed;font-size:20.13329697px;font-family:Impact;-inkscape-font-specification:'Impact Condensed';fill:#ffffff"
       id="path3404" />
    <path
       d="m 73.406273,70.200076 2.929552,0 q 2.929552,0 3.961776,0.226106 1.042056,0.226106 1.690883,1.160024 0.658657,0.924087 0.658657,2.959044 0,1.858004 -0.462043,2.497001 -0.462043,0.638996 -1.818682,0.766795 1.228839,0.304752 1.65156,0.815949 0.422721,0.511197 0.521028,0.943749 0.108137,0.42272 0.108137,2.34954 l 0,4.197713 -3.843808,0 0,-5.288922 q 0,-1.277993 -0.206445,-1.582745 -0.196614,-0.304752 -1.051886,-0.304752 l 0,7.176419 -4.138729,0 0,-15.915921 z m 4.138729,2.723107 0,3.539056 q 0.697981,0 0.973241,-0.186784 0.28509,-0.196614 0.28509,-1.2485 l 0,-0.874933 q 0,-0.756965 -0.27526,-0.992902 -0.265429,-0.235937 -0.983071,-0.235937 z"
       style="font-style:normal;font-variant:normal;font-weight:normal;font-stretch:condensed;font-size:20.13329697px;font-family:Impact;-inkscape-font-specification:'Impact Condensed';fill:#ffffff"
       id="path3406" />
    <path
       d="m 91.406311,70.200076 2.369202,15.915921 -4.237037,0 -0.206445,-2.860737 -1.484437,0 -0.245768,2.860737 -4.28619,0 2.103772,-15.915921 5.986903,0 z m -2.192248,10.23377 Q 88.89948,77.7304 88.584897,73.758793 q -0.629166,4.56145 -0.786457,6.675053 l 1.415623,0 z"
       style="font-style:normal;font-variant:normal;font-weight:normal;font-stretch:condensed;font-size:20.13329697px;font-family:Impact;-inkscape-font-specification:'Impact Condensed';fill:#ffffff"
       id="path3408" />
    <path
       d="m 94.483322,70.200076 3.096674,0 q 2.998364,0 4.050254,0.275259 1.06172,0.27526 1.61224,0.904426 0.55052,0.629165 0.68815,1.405792 0.13763,0.766795 0.13763,3.027859 l 0,5.574013 q 0,2.143095 -0.20645,2.870568 -0.19661,0.717642 -0.69798,1.130532 -0.50137,0.403059 -1.23867,0.570181 -0.7373,0.157291 -2.22174,0.157291 l -5.220108,0 0,-15.915921 z m 4.138729,2.723107 0,10.469707 q 0.894595,0 1.10104,-0.353905 0.206445,-0.363737 0.206445,-1.956312 l 0,-6.183517 q 0,-1.081379 -0.06882,-1.386131 -0.06882,-0.304752 -0.314583,-0.442382 -0.245767,-0.14746 -0.924087,-0.14746 z"
       style="font-style:normal;font-variant:normal;font-weight:normal;font-stretch:condensed;font-size:20.13329697px;font-family:Impact;-inkscape-font-specification:'Impact Condensed';fill:#ffffff"
       id="path3410" />
    <path
       d="m 109.75042,70.200076 0,15.915921 -4.13873,0 0,-15.915921 4.13873,0 z"
       style="font-style:normal;font-variant:normal;font-weight:normal;font-stretch:condensed;font-size:20.13329697px;font-family:Impact;-inkscape-font-specification:'Impact Condensed';fill:#ffffff"
       id="path3412" />
    <path
       d="m 120.84929,79.51959 q 0,2.398694 -0.11797,3.401426 -0.10814,0.992902 -0.70781,1.818682 -0.58984,0.825779 -1.60241,1.268161 -1.01256,0.442383 -2.35937,0.442383 -1.27799,0 -2.30039,-0.41289 -1.01256,-0.422721 -1.63189,-1.258331 -0.61934,-0.835611 -0.73731,-1.818682 -0.11797,-0.983071 -0.11797,-3.440749 l 0,-2.723107 q 0,-2.398694 0.10814,-3.391596 0.11797,-1.002732 0.70781,-1.828512 0.59968,-0.82578 1.61224,-1.268162 1.01256,-0.442382 2.35937,-0.442382 1.27799,0 2.29056,0.422721 1.02239,0.41289 1.64173,1.2485 0.61933,0.835611 0.7373,1.818682 0.11797,0.983071 0.11797,3.440749 l 0,2.723107 z m -4.13873,-5.229939 q 0,-1.11087 -0.1278,-1.415622 -0.11797,-0.314583 -0.50137,-0.314583 -0.32441,0 -0.50136,0.255599 -0.16713,0.245768 -0.16713,1.474606 l 0,7.432018 q 0,1.386131 0.10814,1.710544 0.11797,0.324414 0.53086,0.324414 0.42272,0 0.54069,-0.373567 0.11797,-0.373567 0.11797,-1.779359 l 0,-7.31405 z"
       style="font-style:normal;font-variant:normal;font-weight:normal;font-stretch:condensed;font-size:20.13329697px;font-family:Impact;-inkscape-font-specification:'Impact Condensed';fill:#ffffff"
       id="path3414" />
    <path
       d="m 125.90227,70.200076 3.09668,0 q 2.99837,0 4.05025,0.275259 1.06172,0.27526 1.61224,0.904426 0.55052,0.629165 0.68815,1.405792 0.13763,0.766795 0.13763,3.027859 l 0,5.574013 q 0,2.143095 -0.20645,2.870568 -0.19661,0.717642 -0.69798,1.130532 -0.50136,0.403059 -1.23867,0.570181 -0.7373,0.157291 -2.22174,0.157291 l -5.22011,0 0,-15.915921 z m 4.13873,2.723107 0,10.469707 q 0.8946,0 1.10104,-0.353905 0.20645,-0.363737 0.20645,-1.956312 l 0,-6.183517 q 0,-1.081379 -0.0688,-1.386131 -0.0688,-0.304752 -0.31458,-0.442382 -0.24577,-0.14746 -0.92409,-0.14746 z"
       style="font-style:normal;font-variant:normal;font-weight:normal;font-stretch:condensed;font-size:20.13329697px;font-family:Impact;-inkscape-font-specification:'Impact Condensed';fill:#ffffff"
       id="path3416" />
    <path
       d="m 146.48778,79.51959 q 0,2.398694 -0.11796,3.401426 -0.10814,0.992902 -0.70782,1.818682 -0.58984,0.825779 -1.6024,1.268161 -1.01257,0.442383 -2.35937,0.442383 -1.278,0 -2.30039,-0.41289 -1.01256,-0.422721 -1.6319,-1.258331 -0.61933,-0.835611 -0.7373,-1.818682 -0.11797,-0.983071 -0.11797,-3.440749 l 0,-2.723107 q 0,-2.398694 0.10814,-3.391596 0.11797,-1.002732 0.70781,-1.828512 0.59967,-0.82578 1.61224,-1.268162 1.01256,-0.442382 2.35937,-0.442382 1.27799,0 2.29055,0.422721 1.0224,0.41289 1.64173,1.2485 0.61934,0.835611 0.73731,1.818682 0.11796,0.983071 0.11796,3.440749 l 0,2.723107 z m -4.13873,-5.229939 q 0,-1.11087 -0.12779,-1.415622 -0.11797,-0.314583 -0.50137,-0.314583 -0.32441,0 -0.50137,0.255599 -0.16712,0.245768 -0.16712,1.474606 l 0,7.432018 q 0,1.386131 0.10814,1.710544 0.11797,0.324414 0.53086,0.324414 0.42272,0 0.54069,-0.373567 0.11796,-0.373567 0.11796,-1.779359 l 0,-7.31405 z"
       style="font-style:normal;font-variant:normal;font-weight:normal;font-stretch:condensed;font-size:20.13329697px;font-family:Impact;-inkscape-font-specification:'Impact Condensed';fill:#ffffff"
       id="path3418" />
    <path
       d="m 163.57356,70.200076 -1.83835,15.915921 -5.17095,0 q -0.70781,-3.666855 -1.2485,-8.336443 -0.24577,1.995634 -1.1502,8.336443 l -5.14146,0 -1.84817,-15.915921 4.02076,0 0.42272,5.554351 0.43255,5.357738 q 0.22611,-4.158391 1.14036,-10.912089 l 4.30586,0 q 0.0885,0.69798 0.45221,5.249599 l 0.45221,6.045888 q 0.34408,-5.770628 1.15019,-11.295487 l 4.02077,0 z"
       style="font-style:normal;font-variant:normal;font-weight:normal;font-stretch:condensed;font-size:20.13329697px;font-family:Impact;-inkscape-font-specification:'Impact Condensed';fill:#ffffff"
       id="path3420" />
    <path
       d="m 173.64021,70.200076 0,15.915921 -3.62754,0 -2.15292,-7.235403 0,7.235403 -3.46041,0 0,-15.915921 3.46041,0 2.32005,7.166588 0,-7.166588 3.46041,0 z"
       style="font-style:normal;font-variant:normal;font-weight:normal;font-stretch:condensed;font-size:20.13329697px;font-family:Impact;-inkscape-font-specification:'Impact Condensed';fill:#ffffff"
       id="path3422" />
    <path
       d="m 179.43051,70.200076 0,12.730771 2.51666,0 0,3.18515 -6.65539,0 0,-15.915921 4.13873,0 z"
       style="font-style:normal;font-variant:normal;font-weight:normal;font-stretch:condensed;font-size:20.13329697px;font-family:Impact;-inkscape-font-specification:'Impact Condensed';fill:#ffffff"
       id="path3424" />
    <path
       d="m 192.41688,79.51959 q 0,2.398694 -0.11797,3.401426 -0.10814,0.992902 -0.70781,1.818682 -0.58985,0.825779 -1.60241,1.268161 -1.01256,0.442383 -2.35937,0.442383 -1.27799,0 -2.30039,-0.41289 -1.01256,-0.422721 -1.63189,-1.258331 -0.61934,-0.835611 -0.73731,-1.818682 -0.11797,-0.983071 -0.11797,-3.440749 l 0,-2.723107 q 0,-2.398694 0.10814,-3.391596 0.11797,-1.002732 0.70781,-1.828512 0.59968,-0.82578 1.61224,-1.268162 1.01256,-0.442382 2.35937,-0.442382 1.27799,0 2.29056,0.422721 1.02239,0.41289 1.64172,1.2485 0.61934,0.835611 0.73731,1.818682 0.11797,0.983071 0.11797,3.440749 l 0,2.723107 z m -4.13873,-5.229939 q 0,-1.11087 -0.1278,-1.415622 -0.11797,-0.314583 -0.50137,-0.314583 -0.32441,0 -0.50137,0.255599 -0.16712,0.245768 -0.16712,1.474606 l 0,7.432018 q 0,1.386131 0.10814,1.710544 0.11797,0.324414 0.53086,0.324414 0.42272,0 0.54069,-0.373567 0.11797,-0.373567 0.11797,-1.779359 l 0,-7.31405 z"
       style="font-style:normal;font-variant:normal;font-weight:normal;font-stretch:condensed;font-size:20.13329697px;font-family:Impact;-inkscape-font-specification:'Impact Condensed';fill:#ffffff"
       id="path3426" />
    <path
       d="m 201.07773,70.200076 2.3692,15.915921 -4.23704,0 -0.20644,-2.860737 -1.48444,0 -0.24577,2.860737 -4.28619,0 2.10378,-15.915921 5.9869,0 z m -2.19225,10.23377 q -0.31458,-2.703446 -0.62917,-6.675053 -0.62916,4.56145 -0.78645,6.675053 l 1.41562,0 z"
       style="font-style:normal;font-variant:normal;font-weight:normal;font-stretch:condensed;font-size:20.13329697px;font-family:Impact;-inkscape-font-specification:'Impact Condensed';fill:#ffffff"
       id="path3428" />
    <path
       d="m 204.15474,70.200076 3.09667,0 q 2.99837,0 4.05026,0.275259 1.06171,0.27526 1.61223,0.904426 0.55052,0.629165 0.68815,1.405792 0.13763,0.766795 0.13763,3.027859 l 0,5.574013 q 0,2.143095 -0.20644,2.870568 -0.19662,0.717642 -0.69798,1.130532 -0.50137,0.403059 -1.23867,0.570181 -0.73731,0.157291 -2.22174,0.157291 l -5.22011,0 0,-15.915921 z m 4.13873,2.723107 0,10.469707 q 0.89459,0 1.10104,-0.353905 0.20644,-0.363737 0.20644,-1.956312 l 0,-6.183517 q 0,-1.081379 -0.0688,-1.386131 -0.0688,-0.304752 -0.31458,-0.442382 -0.24577,-0.14746 -0.92409,-0.14746 z"
       style="font-style:normal;font-variant:normal;font-weight:normal;font-stretch:condensed;font-size:20.13329697px;font-family:Impact;-inkscape-font-specification:'Impact Condensed';fill:#ffffff"
       id="path3430" />
    <path
       d="m 215.28311,70.200076 6.90116,0 0,3.18515 -2.76243,0 0,3.018028 2.58548,0 0,3.02786 -2.58548,0 0,3.499733 3.03769,0 0,3.18515 -7.17642,0 0,-15.915921 z"
       style="font-style:normal;font-variant:normal;font-weight:normal;font-stretch:condensed;font-size:20.13329697px;font-family:Impact;-inkscape-font-specification:'Impact Condensed';fill:#ffffff"
       id="path3432" />
    <path
       d="m 223.65887,70.200076 2.92956,0 q 2.92955,0 3.96177,0.226106 1.04206,0.226106 1.69089,1.160024 0.65865,0.924087 0.65865,2.959044 0,1.858004 -0.46204,2.497001 -0.46204,0.638996 -1.81868,0.766795 1.22884,0.304752 1.65156,0.815949 0.42272,0.511197 0.52103,0.943749 0.10813,0.42272 0.10813,2.34954 l 0,4.197713 -3.84381,0 0,-5.288922 q 0,-1.277993 -0.20644,-1.582745 -0.19661,-0.304752 -1.05189,-0.304752 l 0,7.176419 -4.13873,0 0,-15.915921 z m 4.13873,2.723107 0,3.539056 q 0.69798,0 0.97324,-0.186784 0.28509,-0.196614 0.28509,-1.2485 l 0,-0.874933 q 0,-0.756965 -0.27526,-0.992902 -0.26542,-0.235937 -0.98307,-0.235937 z"
       style="font-style:normal;font-variant:normal;font-weight:normal;font-stretch:condensed;font-size:20.13329697px;font-family:Impact;-inkscape-font-specification:'Impact Condensed';fill:#ffffff"
       id="path3434" />
  </g>
</svg>
