<?xml version="1.0" encoding="UTF-8" standalone="no"?>
<svg
   xmlns:dc="http://purl.org/dc/elements/1.1/"
   xmlns:cc="http://creativecommons.org/ns#"
   xmlns:rdf="http://www.w3.org/1999/02/22-rdf-syntax-ns#"
   xmlns:svg="http://www.w3.org/2000/svg"
   xmlns="http://www.w3.org/2000/svg"
   xmlns:sodipodi="http://sodipodi.sourceforge.net/DTD/sodipodi-0.dtd"
   xmlns:inkscape="http://www.inkscape.org/namespaces/inkscape"
   width="2500"
   height="2500"
   viewBox="0 0 192.756 192.756"
   id="svg2"
   version="1.1"
   inkscape:version="0.91 r13725"
   sodipodi:docname="polskie-radio-downloader.svg">
  <metadata
     id="metadata16">
    <rdf:RDF>
      <cc:Work
         rdf:about="">
        <dc:format>image/svg+xml</dc:format>
        <dc:type
           rdf:resource="http://purl.org/dc/dcmitype/StillImage" />
        <dc:title />
      </cc:Work>
    </rdf:RDF>
  </metadata>
  <defs
     id="defs14" />
  <sodipodi:namedview
     pagecolor="#ffffff"
     bordercolor="#666666"
     borderopacity="1"
     objecttolerance="10"
     gridtolerance="10"
     guidetolerance="10"
     inkscape:pageopacity="0"
     inkscape:pageshadow="2"
     inkscape:window-width="1280"
     inkscape:window-height="751"
     id="namedview12"
     showgrid="false"
     inkscape:zoom="0.26700352"
     inkscape:cx="1006.4394"
     inkscape:cy="1544.9675"
     inkscape:window-x="0"
     inkscape:window-y="1"
     inkscape:window-maximized="1"
     inkscape:current-layer="svg2" />
  <path
     style="clip-rule:evenodd;fill:#b4282e;fill-rule:evenodd"
     inkscape:connector-curvature="0"
     id="path8"
     d="m 95.911,189.922 c -46.014,0 -84.329,-34.582 -91.045,-79.467 l 8.943,0 c 6.632,39.924 40.961,70.502 82.102,70.502 41.142,0 75.47,-30.578 82.103,-70.502 l 8.943,0 c -6.717,44.885 -45.031,79.467 -91.046,79.467 z M 4.585,84.327 C 10.437,38.462 49.208,2.834 95.911,2.834 c 46.702,0 85.474,35.627 91.325,81.493 l -8.912,0 C 172.535,43.417 137.744,11.8 95.911,11.8 54.077,11.8 19.286,43.417 13.497,84.327 l -8.912,0 z m 91.326,86.443 c -35.602,0 -65.403,-26.033 -71.912,-60.314 l 9.814,0 c 6.354,28.867 31.81,50.553 62.097,50.553 30.288,0 55.743,-21.686 62.097,-50.553 l 9.814,0 c -6.507,34.28 -36.309,60.314 -71.91,60.314 z M 23.644,84.327 c 5.698,-35.277 35.968,-62.34 72.267,-62.34 36.298,0 66.569,27.063 72.267,62.34 l -9.758,0 C 152.834,54.455 126.902,31.748 95.911,31.748 64.92,31.748 38.988,54.456 33.402,84.327 l -9.758,0 z m 72.267,66.245 c -24.596,0 -45.392,-17.055 -51.519,-40.117 l 10.891,0 c 5.786,17.146 21.828,29.531 40.628,29.531 18.8,0 34.843,-12.385 40.628,-29.531 l 10.891,0 c -6.127,23.063 -26.922,40.117 -51.519,40.117 z M 43.894,84.327 c 5.419,-24.083 26.707,-42.144 52.018,-42.144 25.31,0 46.599,18.062 52.017,42.144 l -10.76,0 C 131.999,66.139 115.444,52.771 95.912,52.771 76.38,52.771 59.825,66.139 54.655,84.327 l -10.761,0 z m 52.017,45.407 c -13.14,0 -24.517,-7.91 -29.759,-19.279 l 9.905,0 c 4.388,6.361 11.656,10.533 19.854,10.533 8.198,0 15.466,-4.172 19.854,-10.533 l 9.904,0 c -5.241,11.369 -16.618,19.279 -29.758,19.279 z M 65.298,84.327 c 4.774,-12.445 16.707,-21.305 30.613,-21.305 13.907,0 25.839,8.859 30.612,21.305 l -9.502,0 c -4.164,-7.486 -12.072,-12.56 -21.11,-12.56 -9.039,0 -16.947,5.074 -21.111,12.56 l -9.502,0 z" />
  <g
     transform="scale(0.80626455,1.2402877)"
     style="font-style:normal;font-variant:normal;font-weight:normal;font-stretch:condensed;font-size:8.97450256px;line-height:125%;font-family:Impact;-inkscape-font-specification:'Impact Condensed';letter-spacing:0px;word-spacing:0px;fill:#000000;fill-opacity:1;stroke:none;stroke-width:1px;stroke-linecap:butt;stroke-linejoin:miter;stroke-opacity:1"
     id="text3347">
    <path
       d="m 5.7148163,70.28264 4.180506,0 q 1.6958657,0 2.6029567,0.266211 0.91695,0.266212 1.370496,0.769056 0.463405,0.502844 0.62116,1.2226 0.167615,0.709898 0.167615,2.20857 l 0,1.390215 q 0,1.528251 -0.31551,2.228289 -0.31551,0.700037 -1.163443,1.074705 -0.838073,0.374668 -2.198709,0.374668 l -1.1141447,0 0,6.428514 -4.150927,0 0,-15.962828 z m 4.150927,2.731132 0,4.06219 q 0.1774747,0.0099 0.3056497,0.0099 0.571862,0 0.788775,-0.276071 0.226773,-0.285931 0.226773,-1.173303 l 0,-1.311338 q 0,-0.818353 -0.256352,-1.064846 -0.256352,-0.246492 -1.0648457,-0.246492 z"
       style="font-style:normal;font-variant:normal;font-weight:normal;font-stretch:condensed;font-size:20.19263268px;font-family:Impact;-inkscape-font-specification:'Impact Condensed'"
       id="path3463" />
    <path
       d="m 25.335588,79.62962 q 0,2.405763 -0.118316,3.411451 -0.108457,0.995828 -0.709898,1.824041 -0.591581,0.828214 -1.607128,1.2719 -1.015548,0.443685 -2.366324,0.443685 -1.281759,0 -2.307166,-0.414106 -1.015548,-0.423967 -1.636708,-1.26204 -0.62116,-0.838073 -0.739476,-1.824041 -0.118316,-0.985969 -0.118316,-3.45089 l 0,-2.731132 q 0,-2.405763 0.108456,-3.401591 0.118316,-1.005688 0.709897,-1.833901 0.601441,-0.828214 1.616989,-1.2719 1.015547,-0.443685 2.366324,-0.443685 1.281759,0 2.297306,0.423966 1.025407,0.414107 1.646567,1.25218 0.62116,0.838073 0.739477,1.824041 0.118316,0.985969 0.118316,3.45089 l 0,2.731132 z m -4.150927,-5.245352 q 0,-1.114144 -0.128176,-1.419794 -0.118316,-0.31551 -0.502844,-0.31551 -0.325369,0 -0.502844,0.256352 -0.167614,0.246492 -0.167614,1.478952 l 0,7.453921 q 0,1.390216 0.108456,1.715585 0.118316,0.32537 0.532423,0.32537 0.423966,0 0.542283,-0.374668 0.118316,-0.374668 0.118316,-1.784603 l 0,-7.335605 z"
       style="font-style:normal;font-variant:normal;font-weight:normal;font-stretch:condensed;font-size:20.19263268px;font-family:Impact;-inkscape-font-specification:'Impact Condensed'"
       id="path3465" />
    <path
       d="m 31.004907,70.28264 0,12.768291 2.524079,0 0,3.194537 -6.675006,0 0,-15.962828 4.150927,0 z"
       style="font-style:normal;font-variant:normal;font-weight:normal;font-stretch:condensed;font-size:20.19263268px;font-family:Impact;-inkscape-font-specification:'Impact Condensed'"
       id="path3467" />
    <path
       d="m 43.33937,75.113885 -3.855136,0 0,-1.183162 q 0,-0.828214 -0.147896,-1.054986 -0.147895,-0.226773 -0.492984,-0.226773 -0.374668,0 -0.571861,0.30565 -0.187334,0.30565 -0.187334,0.92681 0,0.798635 0.216913,1.202882 0.207053,0.404247 1.173302,0.976109 2.770571,1.646567 3.490328,2.701553 0.719757,1.054986 0.719757,3.401591 0,1.705725 -0.404247,2.514219 -0.394387,0.808494 -1.538111,1.360637 -1.143723,0.542282 -2.662114,0.542282 -1.666287,0 -2.849449,-0.631019 -1.173302,-0.63102 -1.538111,-1.607129 -0.364808,-0.976109 -0.364808,-2.770571 l 0,-1.045127 3.855136,0 0,1.942358 q 0,0.897231 0.157755,1.153583 0.167615,0.256352 0.581722,0.256352 0.414106,0 0.6113,-0.32537 0.207053,-0.325369 0.207053,-0.966249 0,-1.409934 -0.384527,-1.84376 -0.394388,-0.433827 -1.942358,-1.449374 -1.54797,-1.025407 -2.050814,-1.488812 -0.502844,-0.463405 -0.838073,-1.281759 -0.32537,-0.818354 -0.32537,-2.090253 0,-1.833901 0.463405,-2.681834 0.473265,-0.847933 1.518392,-1.321198 1.045126,-0.483124 2.524079,-0.483124 1.616988,0 2.750851,0.522563 1.143724,0.522563 1.508532,1.321198 0.374668,0.788774 0.374668,2.691693 l 0,0.63102 z"
       style="font-style:normal;font-variant:normal;font-weight:normal;font-stretch:condensed;font-size:20.19263268px;font-family:Impact;-inkscape-font-specification:'Impact Condensed'"
       id="path3469" />
    <path
       d="m 54.885062,70.28264 -2.376184,7.207429 2.602957,8.755399 -4.288963,0 -1.676146,-6.842621 0,6.842621 -4.150927,0 0,-15.962828 4.150927,0 0,6.201741 1.843761,-6.201741 3.894575,0 z"
       style="font-style:normal;font-variant:normal;font-weight:normal;font-stretch:condensed;font-size:20.19263268px;font-family:Impact;-inkscape-font-specification:'Impact Condensed'"
       id="path3471" />
    <path
       d="m 59.992376,70.28264 0,15.962828 -4.150927,0 0,-15.962828 4.150927,0 z"
       style="font-style:normal;font-variant:normal;font-weight:normal;font-stretch:condensed;font-size:20.19263268px;font-family:Impact;-inkscape-font-specification:'Impact Condensed'"
       id="path3473" />
    <path
       d="m 61.638946,70.28264 6.921498,0 0,3.194537 -2.770571,0 0,3.026923 2.593097,0 0,3.036783 -2.593097,0 0,3.510048 3.046642,0 0,3.194537 -7.197569,0 0,-15.962828 z"
       style="font-style:normal;font-variant:normal;font-weight:normal;font-stretch:condensed;font-size:20.19263268px;font-family:Impact;-inkscape-font-specification:'Impact Condensed'"
       id="path3475" />
    <path
       d="m 73.588886,70.28264 2.938185,0 q 2.938186,0 3.973453,0.226773 1.045126,0.226772 1.695866,1.163442 0.660598,0.926811 0.660598,2.967765 0,1.86348 -0.463405,2.50436 -0.463405,0.640879 -1.824041,0.769055 1.23246,0.30565 1.656427,0.818354 0.423966,0.512704 0.522563,0.94653 0.108456,0.423966 0.108456,2.356464 l 0,4.210085 -3.855136,0 0,-5.30451 q 0,-1.281759 -0.207053,-1.587409 -0.197194,-0.30565 -1.054987,-0.30565 l 0,7.197569 -4.150926,0 0,-15.962828 z m 4.150926,2.731132 0,3.549487 q 0.700038,0 0.976109,-0.187334 0.285931,-0.197194 0.285931,-1.25218 l 0,-0.877512 q 0,-0.759196 -0.276071,-0.995828 -0.266212,-0.236633 -0.985969,-0.236633 z"
       style="font-style:normal;font-variant:normal;font-weight:normal;font-stretch:condensed;font-size:20.19263268px;font-family:Impact;-inkscape-font-specification:'Impact Condensed'"
       id="path3477" />
    <path
       d="m 91.641962,70.28264 2.376184,15.962828 -4.249524,0 -0.207053,-2.869168 -1.488813,0 -0.246492,2.869168 -4.298822,0 2.109972,-15.962828 6.004548,0 z m -2.19871,10.263931 q -0.31551,-2.711413 -0.631019,-6.694726 -0.63102,4.574894 -0.788775,6.694726 l 1.419794,0 z"
       style="font-style:normal;font-variant:normal;font-weight:normal;font-stretch:condensed;font-size:20.19263268px;font-family:Impact;-inkscape-font-specification:'Impact Condensed'"
       id="path3479" />
    <path
       d="m 94.728046,70.28264 3.1058,0 q 3.007204,0 4.062194,0.276071 1.06484,0.276071 1.61698,0.907091 0.55215,0.63102 0.69018,1.409935 0.13804,0.769055 0.13804,3.036782 l 0,5.590441 q 0,2.149411 -0.20706,2.879028 -0.19719,0.719757 -0.70003,1.133864 -0.50285,0.404247 -1.24232,0.571861 -0.73948,0.157755 -2.228292,0.157755 l -5.235492,0 0,-15.962828 z m 4.150927,2.731132 0,10.500564 q 0.897231,0 1.104284,-0.354949 0.207053,-0.364808 0.207053,-1.962077 l 0,-6.201741 q 0,-1.084565 -0.069,-1.390216 -0.069,-0.30565 -0.315507,-0.443685 -0.246492,-0.147896 -0.92681,-0.147896 z"
       style="font-style:normal;font-variant:normal;font-weight:normal;font-stretch:condensed;font-size:20.19263268px;font-family:Impact;-inkscape-font-specification:'Impact Condensed'"
       id="path3481" />
    <path
       d="m 110.04014,70.28264 0,15.962828 -4.15093,0 0,-15.962828 4.15093,0 z"
       style="font-style:normal;font-variant:normal;font-weight:normal;font-stretch:condensed;font-size:20.19263268px;font-family:Impact;-inkscape-font-specification:'Impact Condensed'"
       id="path3483" />
    <path
       d="m 121.17172,79.62962 q 0,2.405763 -0.11832,3.411451 -0.10845,0.995828 -0.7099,1.824041 -0.59158,0.828214 -1.60712,1.2719 -1.01555,0.443685 -2.36633,0.443685 -1.28176,0 -2.30716,-0.414106 -1.01555,-0.423967 -1.63671,-1.26204 -0.62116,-0.838073 -0.73948,-1.824041 -0.11831,-0.985969 -0.11831,-3.45089 l 0,-2.731132 q 0,-2.405763 0.10845,-3.401591 0.11832,-1.005688 0.7099,-1.833901 0.60144,-0.828214 1.61699,-1.2719 1.01555,-0.443685 2.36632,-0.443685 1.28176,0 2.29731,0.423966 1.02541,0.414107 1.64657,1.25218 0.62116,0.838073 0.73947,1.824041 0.11832,0.985969 0.11832,3.45089 l 0,2.731132 z m -4.15093,-5.245352 q 0,-1.114144 -0.12817,-1.419794 -0.11832,-0.31551 -0.50285,-0.31551 -0.32537,0 -0.50284,0.256352 -0.16762,0.246492 -0.16762,1.478952 l 0,7.453921 q 0,1.390216 0.10846,1.715585 0.11832,0.32537 0.53242,0.32537 0.42397,0 0.54228,-0.374668 0.11832,-0.374668 0.11832,-1.784603 l 0,-7.335605 z"
       style="font-style:normal;font-variant:normal;font-weight:normal;font-stretch:condensed;font-size:20.19263268px;font-family:Impact;-inkscape-font-specification:'Impact Condensed'"
       id="path3485" />
    <path
       d="m 126.2396,70.28264 3.1058,0 q 3.0072,0 4.06219,0.276071 1.06484,0.276071 1.61698,0.907091 0.55215,0.63102 0.69018,1.409935 0.13804,0.769055 0.13804,3.036782 l 0,5.590441 q 0,2.149411 -0.20705,2.879028 -0.1972,0.719757 -0.70004,1.133864 -0.50285,0.404247 -1.24232,0.571861 -0.73948,0.157755 -2.22829,0.157755 l -5.23549,0 0,-15.962828 z m 4.15092,2.731132 0,10.500564 q 0.89723,0 1.10429,-0.354949 0.20705,-0.364808 0.20705,-1.962077 l 0,-6.201741 q 0,-1.084565 -0.069,-1.390216 -0.069,-0.30565 -0.31551,-0.443685 -0.24649,-0.147896 -0.92681,-0.147896 z"
       style="font-style:normal;font-variant:normal;font-weight:normal;font-stretch:condensed;font-size:20.19263268px;font-family:Impact;-inkscape-font-specification:'Impact Condensed'"
       id="path3487" />
    <path
       d="m 146.88578,79.62962 q 0,2.405763 -0.11832,3.411451 -0.10846,0.995828 -0.7099,1.824041 -0.59158,0.828214 -1.60713,1.2719 -1.01554,0.443685 -2.36632,0.443685 -1.28176,0 -2.30717,-0.414106 -1.01554,-0.423967 -1.6367,-1.26204 -0.62116,-0.838073 -0.73948,-1.824041 -0.11832,-0.985969 -0.11832,-3.45089 l 0,-2.731132 q 0,-2.405763 0.10846,-3.401591 0.11832,-1.005688 0.7099,-1.833901 0.60144,-0.828214 1.61699,-1.2719 1.01554,-0.443685 2.36632,-0.443685 1.28176,0 2.29731,0.423966 1.0254,0.414107 1.64656,1.25218 0.62116,0.838073 0.73948,1.824041 0.11832,0.985969 0.11832,3.45089 l 0,2.731132 z m -4.15093,-5.245352 q 0,-1.114144 -0.12818,-1.419794 -0.11831,-0.31551 -0.50284,-0.31551 -0.32537,0 -0.50284,0.256352 -0.16762,0.246492 -0.16762,1.478952 l 0,7.453921 q 0,1.390216 0.10846,1.715585 0.11831,0.32537 0.53242,0.32537 0.42397,0 0.54228,-0.374668 0.11832,-0.374668 0.11832,-1.784603 l 0,-7.335605 z"
       style="font-style:normal;font-variant:normal;font-weight:normal;font-stretch:condensed;font-size:20.19263268px;font-family:Impact;-inkscape-font-specification:'Impact Condensed'"
       id="path3489" />
    <path
       d="m 164.0219,70.28264 -1.84376,15.962828 -5.18619,0 q -0.7099,-3.677662 -1.25218,-8.361012 -0.24649,2.001516 -1.15359,8.361012 l -5.15661,0 -1.85362,-15.962828 4.03261,0 0.42397,5.570721 0.43382,5.373528 q 0.22678,-4.170646 1.14373,-10.944249 l 4.31854,0 q 0.0887,0.700037 0.45354,5.265071 l 0.45355,6.063706 q 0.34509,-5.787635 1.15358,-11.328777 l 4.03261,0 z"
       style="font-style:normal;font-variant:normal;font-weight:normal;font-stretch:condensed;font-size:20.19263268px;font-family:Impact;-inkscape-font-specification:'Impact Condensed'"
       id="path3491" />
    <path
       d="m 174.11822,70.28264 0,15.962828 -3.63822,0 -2.15928,-7.256727 0,7.256727 -3.4706,0 0,-15.962828 3.4706,0 2.32689,7.187709 0,-7.187709 3.47061,0 z"
       style="font-style:normal;font-variant:normal;font-weight:normal;font-stretch:condensed;font-size:20.19263268px;font-family:Impact;-inkscape-font-specification:'Impact Condensed'"
       id="path3493" />
    <path
       d="m 179.92557,70.28264 0,12.768291 2.52408,0 0,3.194537 -6.675,0 0,-15.962828 4.15092,0 z"
       style="font-style:normal;font-variant:normal;font-weight:normal;font-stretch:condensed;font-size:20.19263268px;font-family:Impact;-inkscape-font-specification:'Impact Condensed'"
       id="path3495" />
    <path
       d="m 192.95021,79.62962 q 0,2.405763 -0.11831,3.411451 -0.10846,0.995828 -0.7099,1.824041 -0.59158,0.828214 -1.60713,1.2719 -1.01555,0.443685 -2.36632,0.443685 -1.28176,0 -2.30717,-0.414106 -1.01555,-0.423967 -1.63671,-1.26204 -0.62116,-0.838073 -0.73947,-1.824041 -0.11832,-0.985969 -0.11832,-3.45089 l 0,-2.731132 q 0,-2.405763 0.10846,-3.401591 0.11831,-1.005688 0.7099,-1.833901 0.60144,-0.828214 1.61698,-1.2719 1.01555,-0.443685 2.36633,-0.443685 1.28176,0 2.2973,0.423966 1.02541,0.414107 1.64657,1.25218 0.62116,0.838073 0.73948,1.824041 0.11831,0.985969 0.11831,3.45089 l 0,2.731132 z m -4.15092,-5.245352 q 0,-1.114144 -0.12818,-1.419794 -0.11832,-0.31551 -0.50284,-0.31551 -0.32537,0 -0.50285,0.256352 -0.16761,0.246492 -0.16761,1.478952 l 0,7.453921 q 0,1.390216 0.10846,1.715585 0.11831,0.32537 0.53242,0.32537 0.42396,0 0.54228,-0.374668 0.11832,-0.374668 0.11832,-1.784603 l 0,-7.335605 z"
       style="font-style:normal;font-variant:normal;font-weight:normal;font-stretch:condensed;font-size:20.19263268px;font-family:Impact;-inkscape-font-specification:'Impact Condensed'"
       id="path3497" />
    <path
       d="m 201.63659,70.28264 2.37618,15.962828 -4.24952,0 -0.20705,-2.869168 -1.48881,0 -0.2465,2.869168 -4.29882,0 2.10997,-15.962828 6.00455,0 z m -2.19871,10.263931 q -0.31551,-2.711413 -0.63102,-6.694726 -0.63102,4.574894 -0.78877,6.694726 l 1.41979,0 z"
       style="font-style:normal;font-variant:normal;font-weight:normal;font-stretch:condensed;font-size:20.19263268px;font-family:Impact;-inkscape-font-specification:'Impact Condensed'"
       id="path3499" />
    <path
       d="m 204.72267,70.28264 3.10581,0 q 3.0072,0 4.06218,0.276071 1.06485,0.276071 1.61699,0.907091 0.55215,0.63102 0.69018,1.409935 0.13804,0.769055 0.13804,3.036782 l 0,5.590441 q 0,2.149411 -0.20706,2.879028 -0.19719,0.719757 -0.70003,1.133864 -0.50285,0.404247 -1.24232,0.571861 -0.73948,0.157755 -2.22829,0.157755 l -5.2355,0 0,-15.962828 z m 4.15093,2.731132 0,10.500564 q 0.89723,0 1.10429,-0.354949 0.20705,-0.364808 0.20705,-1.962077 l 0,-6.201741 q 0,-1.084565 -0.069,-1.390216 -0.069,-0.30565 -0.31551,-0.443685 -0.24649,-0.147896 -0.92681,-0.147896 z"
       style="font-style:normal;font-variant:normal;font-weight:normal;font-stretch:condensed;font-size:20.19263268px;font-family:Impact;-inkscape-font-specification:'Impact Condensed'"
       id="path3501" />
    <path
       d="m 215.88384,70.28264 6.9215,0 0,3.194537 -2.77058,0 0,3.026923 2.5931,0 0,3.036783 -2.5931,0 0,3.510048 3.04665,0 0,3.194537 -7.19757,0 0,-15.962828 z"
       style="font-style:normal;font-variant:normal;font-weight:normal;font-stretch:condensed;font-size:20.19263268px;font-family:Impact;-inkscape-font-specification:'Impact Condensed'"
       id="path3503" />
    <path
       d="m 224.28429,70.28264 2.93819,0 q 2.93818,0 3.97345,0.226773 1.04512,0.226772 1.69586,1.163442 0.6606,0.926811 0.6606,2.967765 0,1.86348 -0.4634,2.50436 -0.46341,0.640879 -1.82404,0.769055 1.23246,0.30565 1.65642,0.818354 0.42397,0.512704 0.52257,0.94653 0.10845,0.423966 0.10845,2.356464 l 0,4.210085 -3.85513,0 0,-5.30451 q 0,-1.281759 -0.20706,-1.587409 -0.19719,-0.30565 -1.05498,-0.30565 l 0,7.197569 -4.15093,0 0,-15.962828 z m 4.15093,2.731132 0,3.549487 q 0.70003,0 0.97611,-0.187334 0.28593,-0.197194 0.28593,-1.25218 l 0,-0.877512 q 0,-0.759196 -0.27608,-0.995828 -0.26621,-0.236633 -0.98596,-0.236633 z"
       style="font-style:normal;font-variant:normal;font-weight:normal;font-stretch:condensed;font-size:20.19263268px;font-family:Impact;-inkscape-font-specification:'Impact Condensed'"
       id="path3505" />
  </g>
</svg>
