<?xml version="1.0" encoding="UTF-8" standalone="no"?>
<svg
   xmlns:dc="http://purl.org/dc/elements/1.1/"
   xmlns:cc="http://creativecommons.org/ns#"
   xmlns:rdf="http://www.w3.org/1999/02/22-rdf-syntax-ns#"
   xmlns:svg="http://www.w3.org/2000/svg"
   xmlns="http://www.w3.org/2000/svg"
   xmlns:sodipodi="http://sodipodi.sourceforge.net/DTD/sodipodi-0.dtd"
   xmlns:inkscape="http://www.inkscape.org/namespaces/inkscape"
   width="2500"
   height="2500"
   viewBox="0 0 192.756 192.756"
   id="svg2"
   version="1.1"
   inkscape:version="0.91 r13725"
   sodipodi:docname="polskie-radio-downloader-black.svg"
   inkscape:export-filename="/Volumes/DANE/bohdan/Skrypty/phonegap/prdl/www/img/polskie-radio-downloader.png"
   inkscape:export-xdpi="7.5999999"
   inkscape:export-ydpi="7.5999999">
  <metadata
     id="metadata16">
    <rdf:RDF>
      <cc:Work
         rdf:about="">
        <dc:format>image/svg+xml</dc:format>
        <dc:type
           rdf:resource="http://purl.org/dc/dcmitype/StillImage" />
        <dc:title />
      </cc:Work>
    </rdf:RDF>
  </metadata>
  <defs
     id="defs14" />
  <sodipodi:namedview
     pagecolor="#ffffff"
     bordercolor="#666666"
     borderopacity="1"
     objecttolerance="10"
     gridtolerance="10"
     guidetolerance="10"
     inkscape:pageopacity="0"
     inkscape:pageshadow="2"
     inkscape:window-width="1280"
     inkscape:window-height="751"
     id="namedview12"
     showgrid="false"
     inkscape:zoom="0.3776"
     inkscape:cx="982.6102"
     inkscape:cy="1432.5158"
     inkscape:window-x="0"
     inkscape:window-y="1"
     inkscape:window-maximized="1"
     inkscape:current-layer="svg2" />
  <path
     style="clip-rule:evenodd;fill:#000000;fill-rule:evenodd"
     inkscape:connector-curvature="0"
     id="path8"
     d="m 95.911,189.922 c -46.014,0 -84.329,-34.582 -91.045,-79.467 l 8.943,0 c 6.632,39.924 40.961,70.502 82.102,70.502 41.142,0 75.47,-30.578 82.103,-70.502 l 8.943,0 c -6.717,44.885 -45.031,79.467 -91.046,79.467 z M 4.585,84.327 C 10.437,38.462 49.208,2.834 95.911,2.834 c 46.702,0 85.474,35.627 91.325,81.493 l -8.912,0 C 172.535,43.417 137.744,11.8 95.911,11.8 54.077,11.8 19.286,43.417 13.497,84.327 l -8.912,0 z m 91.326,86.443 c -35.602,0 -65.403,-26.033 -71.912,-60.314 l 9.814,0 c 6.354,28.867 31.81,50.553 62.097,50.553 30.288,0 55.743,-21.686 62.097,-50.553 l 9.814,0 c -6.507,34.28 -36.309,60.314 -71.91,60.314 z M 23.644,84.327 c 5.698,-35.277 35.968,-62.34 72.267,-62.34 36.298,0 66.569,27.063 72.267,62.34 l -9.758,0 C 152.834,54.455 126.902,31.748 95.911,31.748 64.92,31.748 38.988,54.456 33.402,84.327 l -9.758,0 z m 72.267,66.245 c -24.596,0 -45.392,-17.055 -51.519,-40.117 l 10.891,0 c 5.786,17.146 21.828,29.531 40.628,29.531 18.8,0 34.843,-12.385 40.628,-29.531 l 10.891,0 c -6.127,23.063 -26.922,40.117 -51.519,40.117 z M 43.894,84.327 c 5.419,-24.083 26.707,-42.144 52.018,-42.144 25.31,0 46.599,18.062 52.017,42.144 l -10.76,0 C 131.999,66.139 115.444,52.771 95.912,52.771 76.38,52.771 59.825,66.139 54.655,84.327 l -10.761,0 z m 52.017,45.407 c -13.14,0 -24.517,-7.91 -29.759,-19.279 l 9.905,0 c 4.388,6.361 11.656,10.533 19.854,10.533 8.198,0 15.466,-4.172 19.854,-10.533 l 9.904,0 c -5.241,11.369 -16.618,19.279 -29.758,19.279 z M 65.298,84.327 c 4.774,-12.445 16.707,-21.305 30.613,-21.305 13.907,0 25.839,8.859 30.612,21.305 l -9.502,0 c -4.164,-7.486 -12.072,-12.56 -21.11,-12.56 -9.039,0 -16.947,5.074 -21.111,12.56 l -9.502,0 z" />
  <g
     transform="scale(0.80389534,1.243943)"
     style="font-style:normal;font-variant:normal;font-weight:normal;font-stretch:condensed;font-size:8.94813061px;line-height:125%;font-family:Impact;-inkscape-font-specification:'Impact Condensed';letter-spacing:0px;word-spacing:0px;fill:#000000;fill-opacity:1;stroke:none;stroke-width:1px;stroke-linecap:butt;stroke-linejoin:miter;stroke-opacity:1"
     id="text3347">
    <path
       style="font-style:normal;font-variant:normal;font-weight:normal;font-stretch:condensed;font-size:20.13329697px;font-family:Impact;-inkscape-font-specification:'Impact Condensed';fill:#000000"
       d="m 20.507812,69.865234 c -0.897871,0 -1.684332,0.148438 -2.359374,0.44336 -0.675042,0.294921 -1.2135,0.717058 -1.613282,1.267578 -0.393228,0.55052 -0.628385,1.159637 -0.707031,1.828125 -0.07209,0.661935 -0.109375,1.793449 -0.109375,3.392578 l 0,2.722656 c 0,1.638452 0.04049,2.786026 0.119141,3.441407 0.07865,0.65538 0.323438,1.261285 0.736328,1.818359 0.41289,0.557073 0.95777,0.975998 1.632812,1.257812 0.681596,0.27526 1.448787,0.414063 2.300781,0.414063 0.897872,0 1.684333,-0.148438 2.359376,-0.44336 0.675041,-0.294921 1.208333,-0.717058 1.601562,-1.267578 0.399782,-0.55052 0.636892,-1.156424 0.708984,-1.818359 0.07865,-0.668488 0.117188,-1.803214 0.117188,-3.402344 l 0,-2.722656 c 0,-1.638452 -0.03854,-2.786026 -0.117188,-3.441406 -0.07865,-0.655381 -0.325392,-1.261286 -0.738281,-1.81836 -0.41289,-0.557073 -0.960982,-0.972787 -1.642578,-1.248047 -0.675042,-0.281814 -1.437067,-0.423828 -2.289063,-0.423828 z m 18.117188,0 c -0.983071,0 -1.820922,0.161286 -2.515625,0.482422 -0.694704,0.314583 -1.201042,0.752778 -1.515625,1.316406 -0.308029,0.563628 -0.460938,1.454821 -0.460938,2.673829 10e-7,0.845441 0.107944,1.541971 0.324219,2.085937 0.22283,0.543966 0.501693,0.969315 0.835938,1.277344 0.334244,0.308029 1.015974,0.802779 2.044922,1.484375 1.028947,0.675042 1.673394,1.156945 1.935547,1.445312 0.255598,0.288368 0.384765,0.900697 0.384765,1.837891 0,0.425998 -0.0694,0.746615 -0.207031,0.962891 -0.131077,0.216276 -0.334115,0.324218 -0.609375,0.324218 -0.275259,0 -0.468664,-0.08351 -0.580078,-0.253906 -0.104862,-0.170399 -0.158203,-0.553994 -0.158203,-1.150391 l 0,-1.9375 -3.84375,0 0,1.042969 c 0,1.192794 0.122743,2.112892 0.365234,2.761719 0.242491,0.648827 0.7533,1.182119 1.533203,1.601562 0.786457,0.419444 1.732251,0.63086 2.839844,0.63086 1.009286,0 1.894055,-0.180556 2.654297,-0.541016 0.760241,-0.367012 1.273003,-0.820009 1.535156,-1.357422 0.268706,-0.537412 0.402344,-1.37205 0.402344,-2.505859 0,-1.559807 -0.238369,-2.691321 -0.716797,-3.392578 -0.478428,-0.701257 -1.638849,-1.598874 -3.480469,-2.693359 -0.642273,-0.380121 -1.032292,-0.703951 -1.169922,-0.972657 -0.144184,-0.268706 -0.216797,-0.66836 -0.216797,-1.199219 0,-0.41289 0.06298,-0.722613 0.1875,-0.925781 0.131076,-0.203168 0.321268,-0.304687 0.570313,-0.304687 0.229383,0 0.391928,0.07582 0.490234,0.226562 0.09831,0.150738 0.148438,0.502215 0.148438,1.052735 l 0,1.179687 3.84375,0 0,-0.628906 c 0,-1.264885 -0.124002,-2.159289 -0.373047,-2.683594 C 42.630556,71.17422 42.12743,70.734071 41.367188,70.386719 40.6135,70.039367 39.699825,69.865234 38.625,69.865234 Z m 77.4375,0 c -0.89787,0 -1.68434,0.148438 -2.35938,0.44336 -0.67503,0.294921 -1.21349,0.717058 -1.61328,1.267578 -0.39322,0.55052 -0.62838,1.159637 -0.70703,1.828125 -0.0721,0.661935 -0.10937,1.793449 -0.10937,3.392578 l 0,2.722656 c 0,1.638452 0.0405,2.786026 0.11914,3.441407 0.0786,0.65538 0.32343,1.261285 0.73633,1.818359 0.41288,0.557073 0.95777,0.975998 1.63281,1.257812 0.6816,0.27526 1.44879,0.414063 2.30078,0.414063 0.89787,0 1.68434,-0.148438 2.35938,-0.44336 0.67504,-0.294921 1.20833,-0.717058 1.60156,-1.267578 0.39978,-0.55052 0.63494,-1.156424 0.70703,-1.818359 0.0786,-0.668488 0.11914,-1.803214 0.11914,-3.402344 l 0,-2.722656 c 0,-1.638452 -0.0405,-2.786026 -0.11914,-3.441406 -0.0786,-0.655381 -0.32344,-1.261286 -0.73633,-1.81836 -0.41289,-0.557073 -0.96098,-0.972786 -1.64258,-1.248047 -0.67504,-0.281814 -1.43707,-0.423828 -2.28906,-0.423828 z m 25.63867,0 c -0.89787,0 -1.68433,0.148438 -2.35937,0.44336 -0.67505,0.294921 -1.2135,0.717058 -1.61328,1.267578 -0.39323,0.55052 -0.62839,1.159637 -0.70704,1.828125 -0.0721,0.661935 -0.10937,1.793449 -0.10937,3.392578 l 0,2.722656 c 0,1.638452 0.0405,2.786026 0.11914,3.441407 0.0787,0.65538 0.32344,1.261285 0.73633,1.818359 0.41289,0.557073 0.95777,0.975998 1.63281,1.257812 0.68159,0.27526 1.44878,0.414063 2.30078,0.414063 0.89787,0 1.68433,-0.148438 2.35938,-0.44336 0.67504,-0.294921 1.20833,-0.717058 1.60156,-1.267578 0.39979,-0.55052 0.63494,-1.156424 0.70703,-1.818359 0.0786,-0.668488 0.11914,-1.803214 0.11914,-3.402344 l 0,-2.722656 c 0,-1.638452 -0.0405,-2.786026 -0.11914,-3.441406 -0.0786,-0.655381 -0.32343,-1.261286 -0.73633,-1.81836 -0.41288,-0.557073 -0.96098,-0.972787 -1.64258,-1.248047 -0.67504,-0.281814 -1.43706,-0.423828 -2.28906,-0.423828 z m 45.92774,0 c -0.89788,0 -1.68434,0.148438 -2.35938,0.44336 -0.67504,0.294921 -1.21154,0.717058 -1.61133,1.267578 -0.39322,0.55052 -0.63033,1.159637 -0.70898,1.828125 -0.0721,0.661935 -0.10742,1.793449 -0.10742,3.392578 l 0,2.722656 c 0,1.638452 0.0385,2.786026 0.11718,3.441407 0.0787,0.65538 0.32539,1.261285 0.73829,1.818359 0.41288,0.557073 0.95582,0.975998 1.63085,1.257812 0.68161,0.27526 1.44879,0.414063 2.30079,0.414063 0.89787,0 1.68433,-0.148438 2.35937,-0.44336 0.67504,-0.294921 1.21028,-0.717058 1.60352,-1.267578 0.39978,-0.55052 0.63493,-1.156424 0.70703,-1.818359 0.0786,-0.668488 0.11719,-1.803214 0.11719,-3.402344 l 0,-2.722656 c 0,-1.638452 -0.0386,-2.786026 -0.11719,-3.441406 -0.0787,-0.655381 -0.32344,-1.261286 -0.73633,-1.81836 -0.41289,-0.557073 -0.96098,-0.972786 -1.64258,-1.248047 -0.67504,-0.281814 -1.43902,-0.423828 -2.29101,-0.423828 z m -181.8964881,0.333985 0,15.916015 4.1386719,0 0,-6.408203 1.1093752,0 c 0.904425,0 1.636286,-0.125955 2.193359,-0.375 0.563627,-0.249044 0.950434,-0.604992 1.160156,-1.070312 0.209722,-0.465321 0.314454,-1.206816 0.314454,-2.222657 l 0,-1.384765 c -1e-6,-0.996179 -0.05656,-1.73125 -0.167969,-2.203125 -0.104861,-0.478427 -0.311112,-0.884505 -0.619141,-1.21875 -0.301475,-0.334244 -0.75573,-0.590626 -1.365234,-0.767578 -0.60295,-0.176953 -1.468448,-0.265625 -2.5957034,-0.265625 l -4.1679687,0 z m 21.0761721,0 0,15.916015 6.65625,0 0,-3.183593 -2.517578,0 0,-12.732422 -4.138672,0 z m 18.08789,0 0,15.916015 4.138672,0 0,-6.822265 1.671875,6.822265 4.277344,0 -2.595703,-8.728515 2.36914,-7.1875 -3.882812,0 -1.839844,6.183593 0,-6.183593 -4.138672,0 z m 10.814454,0 0,15.916015 4.138671,0 0,-15.916015 -4.138671,0 z m 5.78125,0 0,15.916015 7.175781,0 0,-3.183593 -3.03711,0 0,-3.5 2.583985,0 0,-3.029297 -2.583985,0 0,-3.017578 2.761719,0 0,-3.185547 -6.90039,0 z m 11.914062,0 0,15.916015 4.138672,0 0,-7.175781 c 0.570181,0 0.921658,0.10152 1.052734,0.304688 0.13763,0.203168 0.205078,0.730036 0.205078,1.582031 l 0,5.289062 3.84375,0 0,-4.197265 c 0,-1.284547 -0.03533,-2.067796 -0.107422,-2.34961 -0.06554,-0.288368 -0.23967,-0.602561 -0.521484,-0.943359 -0.281814,-0.340798 -0.831164,-0.613238 -1.65039,-0.816406 0.904426,-0.0852 1.51033,-0.339628 1.818359,-0.765625 0.308029,-0.425998 0.460937,-1.259378 0.460937,-2.498047 0,-1.356638 -0.219098,-2.342927 -0.658203,-2.958984 -0.432551,-0.622613 -0.996702,-1.009419 -1.691406,-1.160157 -0.688149,-0.150737 -2.007903,-0.226562 -3.960937,-0.226562 l -2.929688,0 z m 12.013672,0 -2.103516,15.916015 4.285156,0 0.246094,-2.859375 1.484375,0 0.207031,2.859375 4.236329,0 -2.369141,-15.916015 -5.986328,0 z m 9.0625,0 0,15.916015 5.220703,0 c 0.989625,0 1.731125,-0.05139 2.222655,-0.15625 0.49153,-0.111414 0.90404,-0.301606 1.23828,-0.570312 0.33425,-0.27526 0.56619,-0.652432 0.69727,-1.13086 0.13763,-0.484981 0.20703,-1.442363 0.20703,-2.871093 l 0,-5.574219 c 0,-1.507376 -0.0469,-2.516147 -0.13867,-3.027344 -0.0918,-0.517751 -0.32049,-0.986806 -0.6875,-1.40625 -0.36702,-0.419444 -0.90352,-0.72079 -1.61133,-0.904297 -0.70126,-0.183506 -2.051873,-0.27539 -4.050782,-0.27539 l -3.097656,0 z m 11.128908,0 0,15.916015 4.13867,0 0,-15.916015 -4.13867,0 z m 20.29101,0 0,15.916015 5.22071,0 c 0.98962,0 1.72917,-0.05139 2.2207,-0.15625 0.49154,-0.111414 0.90404,-0.301606 1.23828,-0.570312 0.33425,-0.27526 0.56815,-0.652431 0.69922,-1.13086 0.13763,-0.484981 0.20508,-1.442363 0.20508,-2.871093 l 0,-5.574219 c 0,-1.507376 -0.045,-2.516147 -0.13672,-3.027344 -0.0918,-0.517751 -0.32049,-0.986806 -0.6875,-1.40625 -0.36701,-0.419444 -0.90547,-0.72079 -1.61328,-0.904297 -0.70126,-0.183506 -2.05187,-0.27539 -4.05078,-0.27539 l -3.09571,0 z m 21.27344,0 1.84766,15.916015 5.14258,0 c 0.60295,-4.227206 0.98654,-7.005514 1.15039,-8.335937 0.36046,3.113059 0.77617,5.891367 1.24804,8.335937 l 5.16993,0 1.83984,-15.916015 -4.02149,0 c -0.5374,3.683239 -0.921,7.449789 -1.15039,11.296875 l -0.45117,-6.046875 c -0.24247,-3.034413 -0.39412,-4.78468 -0.45312,-5.25 l -4.30664,0 c -0.6095,4.502465 -0.98794,8.139848 -1.13868,10.912109 l -0.43359,-5.357422 -0.42187,-5.554687 -4.02149,0 z m 17.22266,0 0,15.916015 3.46094,0 0,-7.234375 2.15234,7.234375 3.6289,0 0,-15.916015 -3.46093,0 0,7.167969 -2.32031,-7.167969 -3.46094,0 z m 10.89258,0 0,15.916015 6.65625,0 0,-3.183593 -2.51758,0 0,-12.732422 -4.13867,0 z m 19.80078,0 -2.10547,15.916015 4.28711,0 0.24609,-2.859375 1.48438,0 0.20507,2.859375 4.23829,0 -2.36915,-15.916015 -5.98632,0 z m 9.0625,0 0,15.916015 5.2207,0 c 0.98962,0 1.72916,-0.05139 2.2207,-0.15625 0.49154,-0.111414 0.90599,-0.301606 1.24024,-0.570312 0.33424,-0.27526 0.56618,-0.652431 0.69726,-1.13086 0.13763,-0.484981 0.20703,-1.442363 0.20703,-2.871093 l 0,-5.574219 c 0,-1.507376 -0.0469,-2.516147 -0.13867,-3.027344 -0.0918,-0.517751 -0.32048,-0.986806 -0.6875,-1.40625 -0.36701,-0.419444 -0.90547,-0.72079 -1.61328,-0.904297 -0.70126,-0.183506 -2.04991,-0.27539 -4.04883,-0.27539 l -3.09765,0 z m 11.1289,0 0,15.916015 7.17578,0 0,-3.183593 -3.0371,0 0,-3.5 2.58593,0 0,-3.029297 -2.58593,0 0,-3.017578 2.76171,0 0,-3.185547 -6.90039,0 z m 8.375,0 0,15.916015 4.13868,0 0,-7.175781 c 0.57018,0 0.92166,0.10152 1.05273,0.304688 0.13763,0.203168 0.20703,0.730036 0.20703,1.582031 l 0,5.289062 3.84375,0 0,-4.197265 c 0,-1.284547 -0.0373,-2.067796 -0.10937,-2.34961 -0.0655,-0.288368 -0.23772,-0.602561 -0.51954,-0.943359 -0.28181,-0.340798 -0.83311,-0.613238 -1.65234,-0.816406 0.90443,-0.0852 1.51033,-0.339628 1.81836,-0.765625 0.30803,-0.425998 0.46289,-1.259378 0.46289,-2.498047 0,-1.356638 -0.22106,-2.342926 -0.66016,-2.958984 -0.43255,-0.622613 -0.99474,-1.009419 -1.68945,-1.160157 -0.68815,-0.150737 -2.00986,-0.226562 -3.96289,-0.226562 l -2.92969,0 z M 20.527344,72.558594 c 0.255598,0 0.421354,0.106684 0.5,0.316406 0.0852,0.203168 0.128906,0.673483 0.128906,1.414062 l 0,7.314454 c 0,0.937194 -0.04049,1.530252 -0.119141,1.779296 -0.07865,0.249045 -0.257248,0.373047 -0.539062,0.373047 -0.27526,0 -0.452605,-0.107942 -0.53125,-0.324218 -0.07209,-0.216276 -0.109375,-0.786851 -0.109375,-1.710938 l 0,-7.431641 c 0,-0.819225 0.05655,-1.310764 0.167969,-1.474609 0.117968,-0.170399 0.285677,-0.255859 0.501953,-0.255859 z m 95.554686,0 c 0.2556,0 0.42135,0.106684 0.5,0.316406 0.0852,0.203168 0.12891,0.673483 0.12891,1.414062 l 0,7.314454 c 0,0.937194 -0.0405,1.530252 -0.11914,1.779296 -0.0787,0.249045 -0.25725,0.373047 -0.53907,0.373047 -0.27526,0 -0.4526,-0.107942 -0.53125,-0.324218 -0.0721,-0.216276 -0.10937,-0.786851 -0.10937,-1.710938 l 0,-7.431641 c 0,-0.819225 0.0566,-1.310764 0.16797,-1.474609 0.11796,-0.170399 0.28568,-0.255859 0.50195,-0.255859 z m 25.63867,0 c 0.2556,0 0.42136,0.106684 0.5,0.316406 0.0852,0.203168 0.12891,0.673483 0.12891,1.414062 l 0,7.314454 c 0,0.937194 -0.0405,1.530252 -0.11914,1.779296 -0.0787,0.249045 -0.2592,0.373047 -0.54102,0.373047 -0.27526,0 -0.45065,-0.107942 -0.52929,-0.324218 -0.0721,-0.216276 -0.10938,-0.786851 -0.10938,-1.710938 l 0,-7.431641 c 0,-0.819225 0.0566,-1.310764 0.16797,-1.474609 0.11797,-0.170399 0.28568,-0.255859 0.50195,-0.255859 z m 45.92774,0 c 0.2556,0 0.4233,0.106684 0.50195,0.316406 0.0852,0.203168 0.12695,0.673483 0.12695,1.414062 l 0,7.314454 c 0,0.937194 -0.0385,1.530252 -0.11718,1.779296 -0.0786,0.249045 -0.25921,0.373047 -0.54102,0.373047 -0.27526,0 -0.4526,-0.107942 -0.53125,-0.324218 -0.0721,-0.216276 -0.10742,-0.786851 -0.10742,-1.710938 l 0,-7.431641 c 0,-0.819225 0.0566,-1.310764 0.16797,-1.474609 0.11797,-0.170399 0.28372,-0.255859 0.5,-0.255859 z M 9.8710938,72.923828 c 0.5374122,0 0.8901482,0.0803 1.0605472,0.244141 0.170399,0.163845 0.255859,0.518534 0.255859,1.0625 l 0,1.308593 c 0,0.589843 -0.07582,0.977909 -0.226562,1.167969 -0.144184,0.183507 -0.405035,0.275391 -0.785157,0.275391 -0.0852,0 -0.1867188,-0.0032 -0.3046872,-0.0098 l 0,-4.048828 z m 67.6738282,0 c 0.478428,0 0.805469,0.07708 0.982422,0.234375 0.183506,0.157291 0.27539,0.489497 0.27539,0.994141 l 0,0.875 c 0,0.701257 -0.0951,1.116971 -0.285156,1.248047 -0.183507,0.124522 -0.507335,0.1875 -0.972656,0.1875 l 0,-3.539063 z m 21.076172,0 c 0.452213,0 0.761936,0.04818 0.925781,0.146484 0.163842,0.09175 0.268573,0.240192 0.314453,0.44336 0.04588,0.203168 0.06836,0.663846 0.06836,1.384766 l 0,6.183593 c 0,1.061717 -0.0694,1.71454 -0.207032,1.957031 -0.13763,0.235937 -0.505166,0.353516 -1.101562,0.353516 l 0,-10.46875 z m 31.419926,0 c 0.45221,0 0.75998,0.04818 0.92382,0.146484 0.16386,0.09175 0.26859,0.240192 0.31446,0.44336 0.0459,0.203168 0.0684,0.663846 0.0684,1.384766 l 0,6.183593 c 0,1.061717 -0.0674,1.71454 -0.20508,1.957031 -0.13763,0.235937 -0.50516,0.353516 -1.10156,0.353516 l 0,-10.46875 z m 78.25195,0 c 0.45221,0 0.75998,0.04818 0.92383,0.146484 0.16385,0.09175 0.26858,0.240192 0.31445,0.44336 0.0459,0.203168 0.0703,0.663846 0.0703,1.384766 l 0,6.183593 c 0,1.061717 -0.0694,1.71454 -0.20703,1.957031 -0.13763,0.235937 -0.50517,0.353516 -1.10156,0.353516 l 0,-10.46875 z m 19.50391,0 c 0.47843,0 0.80742,0.07708 0.98437,0.234375 0.18351,0.157291 0.27539,0.489497 0.27539,0.994141 l 0,0.875 c 0,0.701257 -0.0951,1.116971 -0.28516,1.248047 -0.1835,0.124522 -0.50929,0.1875 -0.9746,0.1875 l 0,-3.539063 z M 88.583984,73.759766 c 0.209722,2.647738 0.421138,4.87153 0.63086,6.673828 l -1.416016,0 c 0.104861,-1.409069 0.365712,-3.632862 0.785156,-6.673828 z m 109.671876,0 c 0.20973,2.647738 0.41919,4.87153 0.62891,6.673828 l -1.41407,0 c 0.10486,-1.409069 0.36572,-3.632862 0.78516,-6.673828 z"
       id="path3381" />
  </g>
</svg>
