<?xml version="1.0" encoding="UTF-8" standalone="no"?>
<svg
   xmlns:dc="http://purl.org/dc/elements/1.1/"
   xmlns:cc="http://creativecommons.org/ns#"
   xmlns:rdf="http://www.w3.org/1999/02/22-rdf-syntax-ns#"
   xmlns:svg="http://www.w3.org/2000/svg"
   xmlns="http://www.w3.org/2000/svg"
   xmlns:sodipodi="http://sodipodi.sourceforge.net/DTD/sodipodi-0.dtd"
   xmlns:inkscape="http://www.inkscape.org/namespaces/inkscape"
   width="2500"
   height="2500"
   viewBox="0 0 192.756 192.756"
   id="svg2"
   version="1.1"
   inkscape:version="0.91 r13725"
   sodipodi:docname="polish-radio-downloader-white.svg">
  <metadata
     id="metadata16">
    <rdf:RDF>
      <cc:Work
         rdf:about="">
        <dc:format>image/svg+xml</dc:format>
        <dc:type
           rdf:resource="http://purl.org/dc/dcmitype/StillImage" />
        <dc:title></dc:title>
      </cc:Work>
    </rdf:RDF>
  </metadata>
  <defs
     id="defs14" />
  <sodipodi:namedview
     pagecolor="#ffffff"
     bordercolor="#666666"
     borderopacity="1"
     objecttolerance="10"
     gridtolerance="10"
     guidetolerance="10"
     inkscape:pageopacity="0"
     inkscape:pageshadow="2"
     inkscape:window-width="1920"
     inkscape:window-height="1027"
     id="namedview12"
     showgrid="false"
     inkscape:zoom="0.26700352"
     inkscape:cx="1297.6395"
     inkscape:cy="1499.1149"
     inkscape:window-x="0"
     inkscape:window-y="0"
     inkscape:window-maximized="1"
     inkscape:current-layer="svg2"
     fit-margin-top="50"
     fit-margin-left="50"
     fit-margin-right="50"
     fit-margin-bottom="50" />
  <path
     style="clip-rule:evenodd;fill:#ffffff;fill-rule:evenodd"
     inkscape:connector-curvature="0"
     id="path8"
     d="m 96.378508,188.90088 c -46.617296,0 -85.434649,-34.20451 -92.2387037,-78.59954 l 9.0602527,0 c 6.718953,39.48819 41.498045,69.7324 83.178451,69.7324 41.681422,0 76.459502,-30.24421 83.179462,-69.7324 l 9.06025,0 c -6.80506,44.39503 -45.6214,78.59954 -92.239712,78.59954 z M 3.8551201,84.458549 C 9.7838461,39.094208 49.063178,3.8551201 96.378508,3.8551201 c 47.314312,0 86.594662,35.2380989 92.522372,80.6034289 l -9.02884,0 C 174.00714,43.99512 138.75999,12.723248 96.378508,12.723248 c -42.382492,0 -77.629641,31.271872 -83.494542,71.735301 l -9.0288459,0 z M 96.378508,169.95794 c -36.068783,0 -66.260508,-25.74882 -72.854848,-59.65562 l 9.942672,0 c 6.437309,28.55189 32.227066,50.00117 62.911163,50.00117 30.685105,0 56.473855,-21.44928 62.911165,-50.00117 l 9.94267,0 c -6.59231,33.90581 -36.78505,59.65562 -72.852822,59.65562 z M 23.164005,84.458549 C 28.936712,49.56663 59.603587,22.799048 96.378508,22.799048 c 36.773912,0 67.441792,26.767582 73.214502,61.659501 l -9.88594,0 C 154.04783,54.91263 127.77584,32.453498 96.378508,32.453498 c -31.397327,0 -57.669326,22.460121 -63.328564,52.005051 l -9.885939,0 z m 73.214503,65.521871 c -24.918482,0 -45.987141,-16.86883 -52.194473,-39.67908 l 11.033793,0 c 5.861862,16.95883 22.11419,29.20864 41.16068,29.20864 19.046492,0 35.299832,-12.24981 41.160682,-29.20864 l 11.03379,0 c -6.20733,22.81124 -27.27498,39.67908 -52.194472,39.67908 z M 43.679506,84.458549 C 49.169555,60.638438 70.736665,42.77459 96.379521,42.77459 c 25.641839,0 47.209969,17.864837 52.698999,41.683959 l -10.90107,0 C 132.93966,66.469088 116.16761,53.247012 96.379521,53.247012 c -19.788087,0 -36.560142,13.222076 -41.797926,31.211537 l -10.902089,0 z m 52.699002,44.911341 c -13.312281,0 -24.838446,-7.82366 -30.149175,-19.06855 l 10.034866,0 c 4.445532,6.29156 11.808824,10.41802 20.114309,10.41802 8.305482,0 15.668772,-4.12646 20.114312,-10.41802 l 10.03385,0 c -5.30972,11.24489 -16.83588,19.06855 -30.148162,19.06855 z M 65.364137,84.458549 c 4.836592,-12.309151 16.926047,-21.072436 31.014371,-21.072436 14.089332,0 26.177782,8.762296 31.013362,21.072436 l -9.62659,0 c -4.21859,-7.404283 -12.23027,-12.422896 -21.386772,-12.422896 -9.157512,0 -17.169195,5.018613 -21.387789,12.422896 l -9.626582,0 z" />
  <text
     xml:space="preserve"
     style="font-style:normal;font-variant:normal;font-weight:normal;font-stretch:condensed;font-size:9.17240238px;line-height:125%;font-family:Impact;-inkscape-font-specification:'Impact Condensed';letter-spacing:0px;word-spacing:0px;fill:#ffffff;fill-opacity:1;stroke:none;stroke-width:1px;stroke-linecap:butt;stroke-linejoin:miter;stroke-opacity:1;"
     x="3.8318138"
     y="88.085411"
     id="text3347"
     sodipodi:linespacing="125%"
     transform="scale(0.82404381,1.2135277)"><tspan
       sodipodi:role="line"
       id="tspan3349"
       x="3.8318138"
       y="88.085411"
       style="font-style:normal;font-variant:normal;font-weight:normal;font-stretch:condensed;font-size:20.63790703px;font-family:Impact;-inkscape-font-specification:'Impact Condensed';fill:#ffffff;">POLISH RADIO DOWNLOADER</tspan></text>
</svg>
