<?xml version="1.0" encoding="UTF-8" standalone="no"?>
<svg
   xmlns:dc="http://purl.org/dc/elements/1.1/"
   xmlns:cc="http://creativecommons.org/ns#"
   xmlns:rdf="http://www.w3.org/1999/02/22-rdf-syntax-ns#"
   xmlns:svg="http://www.w3.org/2000/svg"
   xmlns="http://www.w3.org/2000/svg"
   xmlns:sodipodi="http://sodipodi.sourceforge.net/DTD/sodipodi-0.dtd"
   xmlns:inkscape="http://www.inkscape.org/namespaces/inkscape"
   width="2500"
   height="2500"
   viewBox="0 0 192.756 192.756"
   id="svg2"
   version="1.1"
   inkscape:version="0.91 r13725"
   sodipodi:docname="polskie-radio-downloader-black.svg"
   inkscape:export-filename="/Volumes/DANE/bohdan/Skrypty/phonegap/prdl/www/img/polskie-radio-downloader.png"
   inkscape:export-xdpi="7.5999999"
   inkscape:export-ydpi="7.5999999">
  <metadata
     id="metadata16">
    <rdf:RDF>
      <cc:Work
         rdf:about="">
        <dc:format>image/svg+xml</dc:format>
        <dc:type
           rdf:resource="http://purl.org/dc/dcmitype/StillImage" />
        <dc:title></dc:title>
      </cc:Work>
    </rdf:RDF>
  </metadata>
  <defs
     id="defs14" />
  <sodipodi:namedview
     pagecolor="#ffffff"
     bordercolor="#666666"
     borderopacity="1"
     objecttolerance="10"
     gridtolerance="10"
     guidetolerance="10"
     inkscape:pageopacity="0"
     inkscape:pageshadow="2"
     inkscape:window-width="1280"
     inkscape:window-height="751"
     id="namedview12"
     showgrid="false"
     inkscape:zoom="0.26700352"
     inkscape:cx="1006.4394"
     inkscape:cy="1544.9675"
     inkscape:window-x="0"
     inkscape:window-y="1"
     inkscape:window-maximized="1"
     inkscape:current-layer="svg2" />
  <path
     style="clip-rule:evenodd;fill:#000000;fill-rule:evenodd"
     inkscape:connector-curvature="0"
     id="path8"
     d="m 95.911,189.922 c -46.014,0 -84.329,-34.582 -91.045,-79.467 l 8.943,0 c 6.632,39.924 40.961,70.502 82.102,70.502 41.142,0 75.47,-30.578 82.103,-70.502 l 8.943,0 c -6.717,44.885 -45.031,79.467 -91.046,79.467 z M 4.585,84.327 C 10.437,38.462 49.208,2.834 95.911,2.834 c 46.702,0 85.474,35.627 91.325,81.493 l -8.912,0 C 172.535,43.417 137.744,11.8 95.911,11.8 54.077,11.8 19.286,43.417 13.497,84.327 l -8.912,0 z m 91.326,86.443 c -35.602,0 -65.403,-26.033 -71.912,-60.314 l 9.814,0 c 6.354,28.867 31.81,50.553 62.097,50.553 30.288,0 55.743,-21.686 62.097,-50.553 l 9.814,0 c -6.507,34.28 -36.309,60.314 -71.91,60.314 z M 23.644,84.327 c 5.698,-35.277 35.968,-62.34 72.267,-62.34 36.298,0 66.569,27.063 72.267,62.34 l -9.758,0 C 152.834,54.455 126.902,31.748 95.911,31.748 64.92,31.748 38.988,54.456 33.402,84.327 l -9.758,0 z m 72.267,66.245 c -24.596,0 -45.392,-17.055 -51.519,-40.117 l 10.891,0 c 5.786,17.146 21.828,29.531 40.628,29.531 18.8,0 34.843,-12.385 40.628,-29.531 l 10.891,0 c -6.127,23.063 -26.922,40.117 -51.519,40.117 z M 43.894,84.327 c 5.419,-24.083 26.707,-42.144 52.018,-42.144 25.31,0 46.599,18.062 52.017,42.144 l -10.76,0 C 131.999,66.139 115.444,52.771 95.912,52.771 76.38,52.771 59.825,66.139 54.655,84.327 l -10.761,0 z m 52.017,45.407 c -13.14,0 -24.517,-7.91 -29.759,-19.279 l 9.905,0 c 4.388,6.361 11.656,10.533 19.854,10.533 8.198,0 15.466,-4.172 19.854,-10.533 l 9.904,0 c -5.241,11.369 -16.618,19.279 -29.758,19.279 z M 65.298,84.327 c 4.774,-12.445 16.707,-21.305 30.613,-21.305 13.907,0 25.839,8.859 30.612,21.305 l -9.502,0 c -4.164,-7.486 -12.072,-12.56 -21.11,-12.56 -9.039,0 -16.947,5.074 -21.111,12.56 l -9.502,0 z" />
  <text
     xml:space="preserve"
     style="font-style:normal;font-variant:normal;font-weight:normal;font-stretch:condensed;font-size:8.94813061px;line-height:125%;font-family:Impact;-inkscape-font-specification:'Impact Condensed';letter-spacing:0px;word-spacing:0px;fill:#000000;fill-opacity:1;stroke:none;stroke-width:1px;stroke-linecap:butt;stroke-linejoin:miter;stroke-opacity:1;"
     x="4.905879"
     y="86.115997"
     id="text3347"
     sodipodi:linespacing="125%"
     transform="scale(0.80389534,1.243943)"><tspan
       sodipodi:role="line"
       id="tspan3349"
       x="4.905879"
       y="86.115997"
       style="font-style:normal;font-variant:normal;font-weight:normal;font-stretch:condensed;font-size:20.13329697px;font-family:Impact;-inkscape-font-specification:'Impact Condensed';fill:#000000;">POLSKIE RADIO DOWNLOADER</tspan></text>
</svg>
